<svg viewBox="0 0 16 16" width="16" height="16" fill="none" xmlns="http://www.w3.org/2000/svg"><path d="M7.26201 2.47559H2.39156c-.36907 0-.72301.14661-.98398.40757C1.14661 3.14413 1 3.49808 1 3.86715v9.74095c0 .369.14661.723.40758.9839.26097.261.61491.4076.98398.4076h9.74094c.369 0 .723-.1466.984-.4076.2609-.2609.4075-.6149.4075-.9839V8.73761" stroke="currentColor" stroke-width="2" stroke-linecap="round" stroke-linejoin="round"/><path d="M12.4802 1.4323C12.757 1.1555 13.1325 1 13.5239 1c.3915 0 .7669.1555 1.0437.4323.2768.2768.4323.65222.4323 1.04367 0 .39145-.1555.76687-.4323 1.04367L7.95768 10.1295l-2.78312.6958.69578-2.78309L12.4802 1.4323z" stroke="currentColor" stroke-width="2" stroke-linecap="round" stroke-linejoin="round"/></svg>