<svg width="24" height="20" fill="none" xmlns="http://www.w3.org/2000/svg"><path d="M17 19v-2c0-1.0609-.4214-2.0783-1.1716-2.8284C15.0783 13.4214 14.0609 13 13 13H5c-1.06087 0-2.07828.4214-2.82843 1.1716C1.42143 14.9217 1 15.9391 1 17v2M9 9c2.2091 0 4-1.79086 4-4s-1.7909-4-4-4C6.79086 1 5 2.79086 5 5s1.79086 4 4 4zM23 19v-2c-.0007-.8863-.2956-1.7472-.8386-2.4477-.543-.7004-1.3033-1.2007-2.1614-1.4223M16 1.13c.8604.22031 1.623.72071 2.1676 1.42232.5446.7016.8402 1.56451.8402 2.45268 0 .88818-.2956 1.75108-.8402 2.45269C17.623 8.1593 16.8604 8.6597 16 8.88" stroke="currentColor" stroke-width="2" stroke-linecap="round" stroke-linejoin="round"/></svg>