<svg width="24" height="24" fill="none" xmlns="http://www.w3.org/2000/svg"><path d="M14.12 14.12c-.2746.2947-.6059.5311-.9738.6951-.368.164-.7653.2522-1.1681.2593-.4028.0071-.8029-.067-1.1765-.2179-.3735-.1509-.7129-.3755-.99775-.6604-.28488-.2848-.50946-.6242-.66034-.9977a3.000316 3.000316 0 01-.21788-1.1765c.00711-.4028.09528-.8001.25925-1.1681.16396-.368.40037-.6992.69512-.97381M17.94 17.94C16.2306 19.243 14.1491 19.9649 12 20c-7 0-11-8-11-8a18.45006 18.45006 0 015.06-5.94001L17.94 17.94zM9.9 4.23999a9.120119 9.120119 0 012.1-.24C19 3.99999 23 12 23 12a18.497978 18.497978 0 01-2.16 3.19L9.9 4.23999zM1 1l22 22" stroke="currentColor" stroke-width="2" stroke-linecap="round" stroke-linejoin="round"/></svg>