<svg width="140" height="100" fill="none" xmlns="http://www.w3.org/2000/svg"><g clip-path="url(#clip0)"><path d="M36.2668 12.6792c-3.9201 1.035-7.4452 3.2092-10.1296 6.2475-2.6844 3.0384-4.4076 6.8045-4.9517 10.8222-.5441 4.0176.1153 8.1064 1.8949 11.7493 1.7796 3.6429 4.5995 6.6763 8.103 8.7167 3.5035 2.0403 7.5334 2.996 11.58 2.7461 4.0467-.2499 7.9284-1.694 11.1543-4.1499 3.2258-2.4559 5.6511-5.8132 6.969-9.6473 1.3179-3.8342 1.4693-7.9731.4351-11.8933-.6869-2.6033-1.8798-5.0459-3.5107-7.1882a20.500498 20.500498 0 00-5.9945-5.2972c-2.3266-1.355-4.8974-2.2383-7.5654-2.5997a20.50097 20.50097 0 00-7.9844.4938zm7.9843 30.2465c-2.0618.5448-4.2389.4658-6.2559-.2268-2.017-.6926-3.7832-1.9678-5.0754-3.6643-1.2922-1.6965-2.0523-3.7381-2.1841-5.8666-.1319-2.1285.3705-4.2483 1.4435-6.0913 1.0729-1.843 2.6684-3.3264 4.5844-4.2627 1.9161-.9362 4.0668-1.2832 6.1801-.997 2.1133.2861 4.0943 1.1925 5.6924 2.6046 1.5982 1.4121 2.7416 3.2663 3.2859 5.3283.7296 2.7644.3314 5.7055-1.1071 8.1763-1.4385 2.4709-3.7995 4.2692-6.5638 4.9995z" fill="#C8DEF6"/><path d="M42 15.7314L33.4145 18s-3.2772-6.4337-2.1955-8.28035c1.0818-1.84663 6.7963-3.56169 8.581-2.26859C41.5846 8.74415 42 15.7314 42 15.7314z" fill="#C8DEF6"/><path d="M42.8012 37.7007l-7.0861 1.8823s.2789 5.9667 1.813 6.8589c1.5341.8922 6.3361-.1995 7.0899-1.8823.7538-1.6827-1.8168-6.8589-1.8168-6.8589z" fill="#F8F8F8"/><path d="M30 20.5283L26.4085 29s-7.3819-1.4183-8.2252-3.47c-.8434-2.0517 1.374-7.8335 3.5914-8.4669C23.9163 16.4485 30 20.5283 30 20.5283zM26.1053 33.1686L27 41.772s-7.3975 2.123-9.1723.7861c-1.7748-1.3369-2.5962-7.1065-.8948-8.6033 1.7015-1.4969 9.1724-.7862 9.1724-.7862zM57.9381 33L56 24.1654s6.6748-3.0735 8.5111-1.8971c1.8364 1.1764 3.3397 7.0677 1.9382 8.8346C65.0477 32.8698 57.9381 33 57.9381 33zM46 16.288L53.4527 22s5.831-4.9678 5.5365-7.2245c-.3089-2.3341-5.1696-6.28222-7.4479-5.72166C49.263 9.61441 46 16.288 46 16.288zM36 49.7217L28.5474 44s-5.8355 4.9678-5.5363 7.2246c.3089 2.3292 5.1695 6.2822 7.4526 5.7216C32.6743 56.4146 36 49.7217 36 49.7217z" fill="#C8DEF6"/><path d="M46.3518 36.4924l2.8571-6.7761s5.8724 1.1293 6.5396 2.7631c.6671 1.6338-1.0931 6.2415-2.8571 6.746-1.7074.5006-6.5396-2.733-6.5396-2.733z" fill="#F8F8F8"/><path d="M108.563 13.7511c-2.462.6487-4.676 2.0119-6.362 3.9172-1.685 1.9054-2.7677 4.2673-3.1096 6.787-.3418 2.5197.0722 5.0841 1.1896 7.3688 1.117 2.2848 2.888 4.1872 5.088 5.4667 2.201 1.2796 4.731 1.8788 7.272 1.7218 2.541-.1569 4.979-1.063 7.004-2.6035 2.026-1.5406 3.548-3.6464 4.375-6.0512.828-2.4049.922-5.0007.272-7.4591-.431-1.6323-1.18-3.1638-2.204-4.5069-1.024-1.3432-2.302-2.4717-3.763-3.3212-1.461-.8495-3.075-1.4033-4.75-1.6297-1.675-.2264-3.378-.121-5.012.3101zm5.013 18.9768c-1.297.3441-2.667.2963-3.937-.1375s-2.383-1.234-3.197-2.2994c-.815-1.0655-1.295-2.3482-1.379-3.6861-.084-1.3378.23-2.6706.905-3.8297.674-1.1591 1.677-2.0924 2.882-2.6819 1.206-.5895 2.559-.8087 3.889-.6299 1.331.1789 2.578.7477 3.584 1.6347 1.006.8869 1.727 2.052 2.07 3.3479.231.8597.289 1.7565.172 2.6389-.118.8823-.408 1.7327-.856 2.5024-.448.7697-1.043 1.4433-1.753 1.9823-.709.539-1.518.9326-2.38 1.1583z" fill="#C8DEF6"/><path d="M112.219 15.8743l-5.609 1.4794s-2.125-4.2012-1.432-5.4246c.694-1.2235 4.44-2.334 5.605-1.4757 1.165.8583 1.436 5.4209 1.436 5.4209zM116.772 35.2237l-5.608 1.4794s.218 4.7207 1.432 5.4247c1.214.7039 5.017-.1581 5.609-1.4795.591-1.3213-1.433-5.4246-1.433-5.4246zM104.391 18.7051l-2.262 5.3343s-4.6438-.8846-5.1828-2.1871c-.539-1.3026.867-4.9315 2.2616-5.3343 1.3942-.4028 5.1832 2.1871 5.1832 2.1871z" fill="#C8DEF6"/><path d="M101.948 26.5729l.55 5.7785s-4.5229 1.423-5.5972.5308c-1.0742-.8922-1.583-4.7546-.5465-5.7672 1.0365-1.0127 5.5937-.5421 5.5937-.5421z" fill="#F2F2F2"/><path d="M122.2 26.8063l-1.251-5.6467s4.315-1.9839 5.499-1.231c1.184.7529 2.156 4.5174 1.251 5.6467-.904 1.1294-5.499 1.231-5.499 1.231zM114.481 15.8592l4.606 3.5236s3.603-3.0606 3.418-4.4535c-.184-1.3928-3.192-3.8661-4.598-3.5273-1.406.3388-3.426 4.4572-3.426 4.4572z" fill="#C8DEF6"/><path d="M108.344 37.0269l-4.613-3.5273s-3.607 3.0643-3.423 4.4534c.185 1.3891 3.197 3.8661 4.603 3.5273 1.405-.3388 3.433-4.4534 3.433-4.4534z" fill="#F2F2F2"/><path d="M119.562 34.2525l2.261-5.3343s4.648.8809 5.175 2.1834c.528 1.3025-.863 4.939-2.261 5.338-1.399.3991-5.175-2.1871-5.175-2.1871z" fill="#C8DEF6"/><path d="M86.1776 71.7844H61.6023v16.1158h24.5753V71.7844zM111.499 21.4758H36.533c-1.009 0-1.9767.4001-2.6906 1.1123-.7138.7122-1.1153 1.6783-1.1163 2.6861v43.7132H115.31V25.2742c-.002-1.0081-.405-1.9742-1.119-2.6863-.714-.7122-1.683-1.1121-2.692-1.1121z" fill="#4990E2"/><path d="M111.499 83.5748H36.533c-1.0097 0-1.978-.4006-2.6919-1.1136-.7139-.7131-1.115-1.6802-1.115-2.6886V68.9874H115.31v10.7965c-.004 1.0068-.407 1.971-1.122 2.6815-.714.7105-1.681 1.1094-2.689 1.1094zM107.391 87.904H39.5935v3.7456h67.7975V87.904z" fill="#003AA5"/><path d="M111.786 25.4775H35.5342v43.5062h76.2518V25.4775z" fill="#8DC6FF"/><path d="M72.3219 27.6345H30.2913v18.8827h42.0306V27.6345z" fill="#EEF9FF"/><path d="M36.0166 32.5697h-3.0154v11.6022h3.0154V32.5697z" fill="#4990E2"/><path d="M39.9743 35.6341h-3.3207v8.5378h3.3207v-8.5378z" fill="#003AA5"/><path d="M43.9358 34.3203h-3.0154v9.8478h3.0154v-9.8478z" fill="#4990E2"/><path d="M47.8934 38.3708h-3.3206v5.8011h3.3206v-5.8011zM53.2874 37.9191l2.2803-1.4682 1.4361.7529 2.3482 2.1759 2.0543-1.4456.7538.4254 1.0215.5835 1.3946.4367s1.8356.3764 2.2615.4367l.9536 1.8822 2.2616-.2898v2.7706H53.2874v-6.2603z" fill="#003AA5"/><path d="M53.261 42.4214l2.303-1.3928 1.0252 1.0277.8896.3651 2.3143-.6964 1.1006.6964 1.6132.655 2.058.3614h3.6825l1.8206.7341H53.2836l-.0226-1.7505z" fill="#4990E2"/><path d="M64.5384 48.4182H40.9468v18.8827h23.5916V48.4182z" fill="#EEF9FF"/><path d="M42.4167 58.7028l2.8345-1.4681 1.7866.7529 2.9174 2.1796 2.5555-1.4455.9235.4253 1.2665.5835 1.7338.4367s2.2615.3765 2.8269.4329l1.1873 1.8823 2.8269-.2899v2.7669H42.4167v-6.2566z" fill="#003AA5"/><path d="M42.3828 63.2014l2.8646-1.3929 1.274 1.0315 1.1044.3614 2.8759-.6964 1.3683.6964 2.009.655 2.5555.3652h4.5796l2.2615.7303H42.413l-.0302-1.7505z" fill="#4990E2"/><path d="M112.849 61.1949v-25.079H75.7141V79.592h29.4719c.194.8566.675 1.6218 1.362 2.1699.687.5481 1.541.8467 2.42.8467.88 0 1.733-.2986 2.42-.8467.688-.5481 1.168-1.3133 1.363-2.1699.062-.2768.093-.5596.094-.8433V63.0094v-.1656l.004-1.6489z" fill="#EEF9FF"/><path d="M105.084 78.7374v-2.0855H72.3218v2.2587c.0106.7461.2465 1.4716.677 2.0816.4304.6099 1.0353 1.0757 1.7353 1.3365.4133.1584.8503.2462 1.2928.2598l-.0339.0188h32.973c-1.028 0-2.014-.4075-2.742-1.133-.728-.7255-1.138-1.7098-1.14-2.7369z" fill="#74CBC7"/><path d="M85.0732 63.8601c-.8158.3951-1.7306.5396-2.6286.4153-.8981-.1242-1.739-.5117-2.4166-1.1134-.6775-.6017-1.1611-1.3905-1.3897-2.2668-.2286-.8762-.1918-1.8005.1056-2.6558.2974-.8554.8422-1.6035 1.5654-2.1496.7231-.5461 1.5922-.8658 2.4973-.9185.9051-.0528 1.8055.1638 2.5874.6222s1.41 1.1381 1.8051 1.9531c.5294 1.0923.6029 2.3499.2042 3.4963-.3986 1.1464-1.2367 2.0878-2.3301 2.6172z" fill="#4990E2"/><path d="M85.7178 55.9999l-2.6385 3.7419 4.5495.5233c.0948-.8165-.0323-1.6434-.3679-2.3939s-.8673-1.3968-1.5393-1.8713h-.0038z" fill="#74CBC7"/><path d="M85.0732 63.8602c.6942-.3359 1.2922-.8415 1.7384-1.4701.4461-.6285.7259-1.3595.8133-2.125l-4.5494-.5233-2.7591 3.6516c.6728.5081 1.4731.8206 2.3125.903.8394.0823 1.6853-.0686 2.4443-.4362z" fill="#003AA5"/><path d="M81.6582 55.3938l1.4172 4.348h.147l2.9551-3.388c-.6013-.5444-1.3362-.92-2.13-1.0886a4.6013 4.6013 0 00-2.3893.1286z" fill="#8DC6FF"/><path d="M95.9172 63.8601c-.8158.3951-1.7306.5396-2.6286.4153-.8981-.1242-1.739-.5117-2.4166-1.1134-.6775-.6017-1.1611-1.3905-1.3897-2.2668-.2286-.8762-.1918-1.8005.1056-2.6558.2974-.8554.8422-1.6035 1.5654-2.1496.7231-.5461 1.5922-.8658 2.4973-.9185.9051-.0528 1.8055.1638 2.5874.6222.7818.4584 1.41 1.1381 1.805 1.9531.2627.5408.4161 1.128.4514 1.728.0353.6-.0482 1.201-.2456 1.7688-.1974.5678-.505 1.0911-.9051 1.5401-.4.449-.8848.8149-1.4265 1.0766z" fill="#4990E2"/><path d="M96.5694 55.9999l-2.6385 3.7419 4.5231.5233c.098-.8145-.0252-1.6402-.3568-2.3907-.3316-.7504-.8594-1.3979-1.5278-1.8745z" fill="#74CBC7"/><path d="M95.9171 63.8602c.6938-.3364 1.2915-.8423 1.7375-1.4707a4.57455 4.57455 0 00.8143-2.1244l-4.5382-.5233-2.7591 3.6516c.6714.5063 1.4697.8178 2.307.9002.8373.0823 1.6811-.0676 2.4385-.4334z" fill="#003AA5"/><path d="M92.5022 55.3938l1.4285 4.348h.147l2.9551-3.388c-.6024-.5464-1.3393-.9232-2.1353-1.0918-.7961-.1687-1.6227-.1232-2.3953.1318z" fill="#8DC6FF"/><path d="M81.3567 39.7072h-1.8884v8.1464h1.8884v-8.1464z" fill="#4990E2"/><path d="M83.837 41.8605h-2.0807v5.9968h2.0807v-5.9968z" fill="#003AA5"/><path d="M86.3208 40.9382h-1.8884v6.9191h1.8884v-6.9191z" fill="#4990E2"/><path d="M88.8008 43.7804h-2.0806v4.0732h2.0806v-4.0732z" fill="#003AA5"/><path d="M91.2509 39.7072h-1.8884v8.1464h1.8884v-8.1464z" fill="#4990E2"/><path d="M93.731 41.8605h-2.0806v5.9968h2.0806v-5.9968z" fill="#003AA5"/><path d="M96.215 40.9382h-1.8883v6.9191h1.8883v-6.9191z" fill="#4990E2"/><path d="M98.6951 43.7804h-2.0806v4.0732h2.0806v-4.0732z" fill="#003AA5"/><path d="M101.145 39.7072h-1.8882v8.1464h1.8882v-8.1464z" fill="#4990E2"/><path d="M103.625 41.8605h-2.08v5.9968h2.08v-5.9968z" fill="#003AA5"/><path d="M106.109 40.9382h-1.888v6.9191h1.888v-6.9191z" fill="#1F75FE"/><path d="M108.589 43.7804h-2.08v4.0732h2.08v-4.0732z" fill="#003AA5"/><path d="M23.0694 60.0204l-5.2769 2.7556 6.6489 12.0087s-.6219 3.6779 1.617 10.5104l1.764 6.0609 1.1006-.1243-2.0542-17.0945s-1.1911-8.2405-3.7994-14.1168z" fill="#4990E2"/><path d="M27.9241 90.5466l1.568-.6814.4862 1.2348.5013.399 3.0531.832-.6069.1807-2.5367.3425-.1394.241-.8933.2522-1.4323-2.8008z" fill="#003AA5"/><path d="M21.1132 62.2527l-6.0308.256.9536 12.6186s-2.7025 2.5673-5.0055 9.3773l-2.22386 5.914.95738.5534 8.62018-14.8999s2.9137-8.6357 2.729-13.8194z" fill="#4990E2"/><path d="M9.50769 88.8714l1.61321 1.1068-.7614 1.0879-.015.6701L11.6109 95l-.5541-.4668-1.95242-2.1759-.30153-.0075L8 91.6534l1.50769-2.782z" fill="#003AA5"/><path d="M20.4988 41.6949s-1.6962.3275-1.9676 1.4493c-.2714 1.1218-.7237 1.7392-2.0203 2.605-1.2966.8659-3.3395 2.4055-3.1247 3.7344.3468 2.1119-1.1081 3.2073-.539 4.3555.5692 1.1482 2.043.6023 2.4915 0 .4485-.6023 3.7692-3.501 4.2743-4.5776.5051-1.0767 1.911-.3501 2.499-1.0917.588-.7416.2375-1.9086.5126-2.3227.9951-1.5246.3166-2.8347-.5578-3.7268-.8745-.8922-1.568-.4254-1.568-.4254z" fill="#2E3B57"/><path d="M39.4353 46.984s1.2928-1.743 1.7941-1.7016c.4184.0339 1.8243.8395-1.2363 2.3792l-.5578-.6776z" fill="#EEF9FF"/><path d="M23.1484 51.2529l8.0059 5.707 9.1516-9.3435-.7538-.9976-8.1151 6.2679-7.4593-4.5551s-2.386-1.7354-3.415-.0527c.6472 1.1589 1.5276 2.1715 2.5857 2.974z" fill="#74CBC7"/><path d="M16.8991 47.7519s-1.1986 1.0729-1.8658 3.8135c-.6671 2.7405.4071 6.441.4071 6.441l-.0716 6.3168 9.4457-.9411.9347-6.5163-1.2287-1.9275.9234-1.9349-2.6158-6.0608-5.929.8093z" fill="#003AA5"/><path d="M20.1821 45.1507l-1.0742 2.2587s2.5518 2.6351 2.4802 1.4079c-.0075-1.132.0529-2.2633.1809-3.3881l-1.5869-.2785z" fill="#EEF9FF"/><path d="M20.2123 41.9659c-.2903.4668-.8707 1.3703-.7087 2.0818.1621.7115.377 1.9726 1.0743 2.3942.6973.4216 1.0554-.3765 1.2702-.6437.2148-.2673 1.1308-2.9589.0339-3.8511-.8254-.6701-1.4511-.3313-1.6697.0188z" fill="#EEF9FF"/><path d="M21.3203 42.4892s-.9649 1.3439-2.0203 1.4643c0 0-.8066-2.285 1.715-2.5862 0 0 2.6762.6852 1.5077 2.5448.0038 0-1.2401-.6813-1.2024-1.4229z" fill="#2E3B57"/><path d="M24.7242 65.2417s2.1183.4819 2.2615.9562c.1357.399-.0377 2.0065-2.6761-.1732l.4146-.783z" fill="#EEF9FF"/><path d="M14.777 51.3997l-2.2992 9.5392 12.005 5.3343.49-.9863-8.5863-5.5413 1.5944-8.5717s.7538-2.846-1.1723-3.2036c-.9381.9674-1.6342 2.1425-2.0316 3.4294z" fill="#74CBC7"/><path d="M109.208 56.4441c-1.46.7083-3.097.9681-4.704.7465-1.608-.2216-3.113-.9146-4.326-1.9913-1.2128-1.0767-2.0783-2.4886-2.4871-4.0569-.4088-1.5684-.3423-3.2226.1909-4.7532.5332-1.5306 1.5092-2.8688 2.8042-3.845 1.295-.9762 2.852-1.5466 4.472-1.6389 1.62-.0923 3.231.2976 4.629 1.1204 1.398.8227 2.52 2.0413 3.224 3.5014.941 1.952 1.069 4.197.356 6.2432-.712 2.0463-2.208 3.7269-4.159 4.6738z" fill="#4990E2"/><path d="M110.357 42.3951l-4.723 6.6857 8.138.9373c.171-1.46-.056-2.9392-.657-4.281-.601-1.3419-1.554-2.4966-2.758-3.342z" fill="#74CBC7"/><path d="M109.207 56.4441c1.243-.6002 2.312-1.5045 3.11-2.6287.799-1.1242 1.299-2.4317 1.455-3.801l-8.138-.9374-4.919 6.5389c1.203.9049 2.632 1.4609 4.13 1.6071 1.498.1461 3.008-.1234 4.362-.7789z" fill="#003AA5"/><path d="M103.101 41.3033l2.533 7.7775.264.0301 5.277-6.0495c-1.07-.9805-2.381-1.6599-3.799-1.9687-1.418-.3089-2.894-.2362-4.275.2106z" fill="#8DC6FF"/><path d="M118.808 50.4209l-4.052 7.1789-10.433-3.5913.263-.8847 8.455 1.5058 3.942-6.185s1.161-2.1872 2.563-1.2988c.016 1.1347-.237 2.2569-.738 3.2751z" fill="#EEF9FF"/><path d="M104.752 53.2405s-1.508-1.0427-1.885-.8771c-.324.1393-1.228 1.1519 1.617 1.566l.268-.6889zM128.574 50.4963l-6.634 4.8938-8.059-7.529.607-.7002 7.101 4.8186 6.129-4.0393s1.953-1.5246 2.865-.1431c-.448 1.0453-1.136 1.9701-2.009 2.6992z" fill="#EEF9FF"/><path d="M114.605 47.3567s-.942-1.5623-1.365-1.5698c-.35 0-1.59.5533.837 2.0893l.528-.5195z" fill="#EEF9FF"/><path d="M122.309 91.7098l-.558-.0677-.271.8169-.275.3237-1.772.9148 2.914-.3125-.038-1.6752zM124.571 90.6558l-.498.2522.223.8282-.049.4254-.973 1.7392 2.258-1.871-.961-1.374z" fill="#003AA5"/><path d="M130.798 62.648l-5.093 16.56-3.479 13.8081-1.319-.2785 1.73-14.7455 1.791-16.6805 6.37 1.3364z" fill="#4990E2"/><path d="M118.721 60.1145l-2.804 15.4946 7.354 16.2513 1.458-.3802-4.459-14.2147 5.729-14.7078.185-.8772-7.463-1.566z" fill="#4990E2"/><path d="M131.404 64.1124l-12.996.6023.995-9.1515-.426-9.0912 5.13-1.2799 6.431.2936.407 8.7713.459 9.8554z" fill="#003AA5"/><path d="M119.52 46.4946s2.171 1.1067-1.206 5.1235l-2.213-2.1759s1.429-3.3316 3.419-2.9476zM130.798 45.5836s2.408.3764.41 5.2476l-2.77-1.4041s.351-3.6064 2.36-3.8435z" fill="#74CBC7"/><path d="M125.215 45.6965c.053.4555-1.79.5421-1.828.0866-.073-.7704-.048-1.5469.072-2.3114l1.334-.5647s.328 1.8333.422 2.7895z" fill="#EEF9FF"/><path d="M123.734 44.1983c-.124.0188-1.263.2672-1.466-.2861-.204-.5534-.238-2.6352 0-3.1359.158-.2554.389-.4578.663-.5812.274-.1234.578-.1622.875-.1114.422.1581 1.59 1.295 1.07 3.3541-.279.38-.683.6494-1.142.7605z" fill="#EEF9FF"/><path d="M122.019 40.7876s.136.704.637.6249c.501-.079 1.349-.271 1.455.1054.106.3765-.192 1.6978.094 2.0103.287.3124.976.6625 1.101.1844.124-.4781.286-3.4144-1.282-4.0205 0 0-1.545-.2559-2.005 1.0955z" fill="#2E3B57"/></g><defs><clipPath id="clip0"><path fill="#fff" d="M8 6h124v89H8z"/></clipPath></defs></svg>