<svg width="140" height="100" fill="none" xmlns="http://www.w3.org/2000/svg"><path d="M95.2609 30.7522c-3.671.9642-6.968 2.9741-9.4734 5.7755-2.5062 2.8014-4.1085 6.2686-4.6048 9.963-.4963 3.6944.1357 7.4502 1.8159 10.7923 1.6806 3.3422 4.3345 6.1207 7.6247 7.984 3.2912 1.8635 7.072 2.7281 10.8637 2.4847 3.792-.2434 7.425-1.584 10.441-3.8522 3.015-2.2683 5.276-5.3622 6.498-8.8907 1.222-3.5285 1.349-7.333.366-10.9325-.652-2.3904-1.778-4.6315-3.314-6.595-1.536-1.9636-3.451-3.6112-5.636-4.8486-2.186-1.2374-4.598-2.0404-7.1-2.363-2.502-.3227-5.0438-.1587-7.4811.4825zm7.5861 27.7687c-1.93.5076-3.9714.4424-5.8637-.1873-1.8924-.6298-3.5525-1.7957-4.7697-3.3505-1.2163-1.5547-1.9361-3.4285-2.0673-5.3842-.1301-1.9557.3332-3.9055 1.3319-5.6028.9996-1.6974 2.4898-3.0661 4.283-3.9329 1.7923-.8669 3.807-1.1929 5.7888-.9369 1.982.2559 3.841 1.0823 5.344 2.3747 1.503 1.2924 2.58 2.9927 3.098 4.8859.691 2.5379.328 5.2415-1.012 7.5167-1.339 2.2752-3.545 3.9359-6.133 4.6173z" fill="#EEF9FF"/><path d="M100.732 33.8457l-8.3611 2.1981s-3.2222-6.1639-2.1711-7.9472c1.052-1.7833 6.6144-3.4463 8.362-2.1981 1.7472 1.2484 2.1702 7.9472 2.1702 7.9472zM107.631 62.1805l-8.3659 2.1981s.3527 6.9159 2.1709 7.9471c1.819 1.0312 7.484-.2559 8.361-2.1981.854-1.8802-2.166-7.9471-2.166-7.9471zM89.0574 38.0326l-3.3485 7.8348s-6.9424-1.2754-7.737-3.1789c-.8223-1.9654 1.2651-7.2377 3.3446-7.8309 2.0201-.5738 7.7409 3.175 7.7409 3.175zM85.4563 49.5812l.8422 8.4512s-6.7213 2.1089-8.3501.8025c-1.6289-1.3065-2.3721-6.9781-.8421-8.4512 1.53-1.4731 8.35-.8025 8.35-.8025zM115.709 49.8138l-1.899-8.2844s6.417-2.9036 8.184-1.8065c1.831 1.1358 3.242 6.6252 1.898 8.2882-1.345 1.6632-8.183 1.8027-8.183 1.8027zM104.105 33.8187l6.907 5.1327s5.36-4.5086 5.083-6.5477c-.292-2.105-4.787-5.6483-6.89-5.1443-2.049.4884-5.1 6.5593-5.1 6.5593zM95.055 64.8709l-6.8875-5.1443s-5.3684 4.5047-5.0834 6.5438c.2924 2.1012 4.7872 5.6521 6.8864 5.1443 2.0993-.5078 5.0845-6.5438 5.0845-6.5438zM111.802 60.7422l3.345-7.8308s6.946 1.2715 7.74 3.175c.819 1.9655-1.264 7.2377-3.344 7.8308-2.079.5932-7.741-3.175-7.741-3.175z" fill="#EEF9FF"/><path d="M65.8624 17.2653c-1.7767.4664-3.3724 1.4389-4.5854 2.7946-1.2129 1.3557-1.9886 3.0337-2.2289 4.8218-.2403 1.7879.0655 3.6057.8787 5.2233.8133 1.6176 2.0976 2.9623 3.6904 3.8642 1.5928.9019 3.4224 1.3202 5.2578 1.2024 1.8353-.118 3.5937-.767 5.0527-1.8648 1.4592-1.098 2.5535-2.5956 3.1446-4.3034.5911-1.7079.6524-3.5492.1762-5.2912-.6384-2.3353-2.1966-4.3262-4.3317-5.5353-2.1352-1.2089-4.6727-1.5368-7.0544-.9116zm3.6727 13.452c-.9342.2461-1.9218.2148-2.838-.0896-.916-.3045-1.7196-.8685-2.3088-1.6208-.5891-.7523-.9377-1.6589-1.0013-2.6054-.0637-.9465.1604-1.8902.6437-2.7119.4834-.8216 1.2045-1.4842 2.0719-1.9039.8675-.4198 1.8424-.5779 2.8015-.4543.959.1236 1.8592.5233 2.5866 1.1485.7274.6253 1.2494 1.4481 1.4998 2.3643.3348 1.228.1588 2.5362-.4889 3.6373-.6479 1.1011-1.7147 1.9052-2.9665 2.2358z" fill="#fff"/><path d="M68.5073 18.7616l-4.0483 1.0622s-1.5577-2.9811-1.0477-3.8417c.51-.8607 3.2023-1.6709 4.0483-1.0622.8461.6086 1.0477 3.8417 1.0477 3.8417zM71.848 32.4734l-4.0483 1.0623s.17 3.3455 1.0516 3.8456c.8816.5001 3.6214-.124 4.0484-1.0622.4269-.9382-1.0517-3.8457-1.0517-3.8457zM62.8618 20.7891l-1.617 3.7875s-3.3605-.6163-3.744-1.5507c-.3834-.9342.6089-3.4889 1.617-3.7913 1.0082-.3024 3.744 1.5545 3.744 1.5545zM61.1182 26.3755l.3954 4.0899s-3.2537 1.0195-4.0365.3876c-.7828-.6318-1.1584-3.3688-.3954-4.0938.7631-.7249 4.0365-.3837 4.0365-.3837zM75.7579 26.4879l-.9211-4.0086s3.1035-1.4033 3.9536-.8722c.85.5311 1.5813 3.2061.9211 4.0085-.6602.8025-3.9536.8723-3.9536.8723zM70.1403 18.7423l3.3367 2.4888s2.5974-2.1787 2.4591-3.1673c-.1384-.9885-2.3129-2.7136-3.3329-2.4888-1.02.2249-2.4629 3.1673-2.4629 3.1673zM65.7636 33.7721l-3.3328-2.4888s-2.6014 2.1826-2.4591 3.1673c.1423.9846 2.3168 2.7369 3.3328 2.4888 1.016-.2482 2.4591-3.1673 2.4591-3.1673zM73.8723 31.7757l1.6169-3.7875s3.3605.6125 3.7479 1.5506c.3875.9381-.6128 3.489-1.6209 3.7914-1.0082.3024-3.7439-1.5545-3.7439-1.5545z" fill="#fff"/><path d="M29.775 80.9281l-18.0516-5.8732.4072-1.2095 16.2646 5.2956-1.1821-25.5202 17.6128 10.5445 7.4246-17.9529 14.1575 5.5243 1.3126-25.9931 15.4664 9.1838 5.61-10.9671 20.973 10.1453 6.776-11.4983L127.414.479248l1.364.484616-11.05 22.178436-7.44 12.6342-20.9062-10.1144-5.6654 11.0641-14.8059-8.7923-1.2966 25.6442-14.6438-5.7141-7.5156 18.17-16.8339-10.0795 1.1544 24.9736z" fill="#74CBC7"/><path d="M30.2771 78.6215c.1762.3336.2476.7111.205 1.0846-.0426.3734-.1971.7261-.4442 1.0134-.247.2873-.5753.4963-.9435.6005-.3682.1043-.7597.0992-1.1248-.0148-.3653-.1139-.6878-.3315-.9268-.6253-.239-.2936-.3839-.6503-.4162-1.0248-.0323-.3744.0494-.7498.2348-1.0787.1853-.329.466-.5966.8064-.7691.4561-.231.9872-.2751 1.4765-.1224.4892.1526.8966.4895 1.1328.9366zM13.55 73.384c.1758.3337.2468.711.2041 1.0841-.0429.3733-.1974.7257-.4444 1.0127-.247.2871-.5751.496-.9431.6002-.368.1043-.7592.0992-1.1242-.0146-.365-.1136-.6875-.331-.9266-.6243-.2392-.2934-.38428-.6496-.41692-1.0239-.03274-.3741.04837-.7494.23312-1.0784.1848-.329.4647-.5969.8047-.7699.4568-.2312.9884-.2754 1.4784-.1227.4899.1526.898.4895 1.1349.9368zM29.4391 53.8611c.1759.3337.2468.7109.2041 1.0842-.0428.3732-.1974.7256-.4444 1.0127-.2469.287-.5752.4958-.9431.6001-.3679.1042-.7592.0992-1.1242-.0146-.365-.1137-.6875-.3309-.9266-.6243-.2392-.2933-.3842-.6496-.417-1.0238-.0327-.3743.0485-.7495.2332-1.0785.1847-.329.4648-.5969.8047-.7699.226-.1155.473-.1861.7268-.2077.254-.0216.5096.0063.7525.0818.2429.0757.4681.1977.6627.3591.1946.1612.3548.3587.4713.5809zM46.7276 64.1382c.1763.3337.2476.7111.205 1.0846-.0425.3735-.1972.7261-.4442 1.0134-.2469.2874-.5754.4963-.9435.6006-.3682.1043-.7597.0991-1.1249-.0149-.3651-.1139-.6876-.3315-.9267-.6252-.2391-.2937-.3839-.6504-.4162-1.0248-.0323-.3744.0494-.7499.2347-1.0788.1854-.3289.466-.5965.8065-.769.4562-.231.9872-.2751 1.4765-.1225.4892.1527.8967.4895 1.1328.9366zM54.3302 46.1659c.1755.3339.2462.7114.203 1.0848-.0432.3732-.1984.7256-.4458 1.0125-.2475.2868-.5762.4953-.9444.599-.3683.1037-.7596.098-1.1245-.0164-.365-.1145-.6872-.3324-.9258-.6264-.2387-.2939-.383-.6507-.4149-1.0251-.0319-.3744.0503-.7497.2359-1.0783.1857-.3287.4665-.596.8071-.7681.2261-.1147.4729-.1846.7265-.2057.2537-.021.509.0073.7514.0833.2424.076.4672.1982.6614.3596.1941.1613.3539.3587.4701.5808zM68.7366 51.7833c.177.3342.2489.7125.2067 1.0868-.0424.3744-.197.7281-.4444 1.0162s-.5763.4979-.9454.6026c-.3689.1047-.7613.0998-1.1274-.0144-.366-.114-.6894-.332-.9291-.6263-.2397-.2943-.3849-.6517-.4173-1.0271-.0324-.3753.0494-.7516.2352-1.0813.1858-.3297.4671-.5979.8085-.7707.4567-.2312.9883-.2753 1.4782-.1227.4899.1526.8981.4895 1.135.9369zM70.1758 25.8948c.1757.3336.2468.7109.204 1.0841-.0427.3732-.1974.7256-.4443 1.0127-.247.287-.5752.4959-.9432.6001-.3679.1042-.759.0991-1.1241-.0145-.3651-.1138-.6875-.3311-.9267-.6243-.2391-.2934-.3842-.6498-.4169-1.0239-.0327-.3742.0485-.7495.2331-1.0784.1848-.3291.4649-.597.8049-.77.4568-.2301.9881-.2737 1.4777-.1212.4896.1525.8978.4887 1.1355.9354zM85.1755 34.9545c.1759.3337.2468.7112.205 1.0846-.0427.3735-.1972.7262-.4449 1.0135-.2467.2873-.5751.4963-.9433.6005-.3681.1043-.7596.0991-1.1249-.0148-.365-.114-.6876-.3316-.9265-.6253-.2391-.2937-.3839-.6503-.4163-1.0248-.0322-.3744.0495-.7498.2348-1.0788.1853-.3289.466-.5965.8065-.769.456-.2311.9874-.2751 1.476-.1224.4896.1526.8976.4895 1.1336.9365zM91.0498 24.0689c.1768.3336.2487.7113.2059 1.085-.0418.3737-.1962.7267-.4439 1.0142-.2468.2875-.5751.4966-.9433.601-.3691.1043-.7606.099-1.1259-.0152-.3652-.1142-.6877-.3321-.9267-.6262-.239-.294-.3837-.651-.4158-1.0258-.032-.3747.0505-.7502.2361-1.079.1865-.3288.4672-.5963.8082-.7682.2263-.1143.4721-.1839.7257-.2049.2525-.0209.507.0071.7489.0828.2419.0756.4663.1971.6606.3578.1943.1607.3536.3572.4702.5785zM111.644 33.6985c.175.334.246.7115.203 1.0847-.044.3734-.199.7257-.446 1.0126-.248.2869-.576.4953-.944.599-.369.1037-.76.098-1.125-.0165-.365-.1143-.687-.3323-.926-.6262s-.382-.6508-.415-1.0252c-.032-.3743.051-.7496.237-1.0783.185-.3286.466-.5959.807-.768.456-.2308.988-.2743 1.476-.1209.49.1534.897.4911 1.133.9388zM119.084 21.9948c.176.3336.247.7109.204 1.0841-.043.3732-.197.7256-.444 1.0127-.247.287-.575.4959-.943.6001-.368.1042-.76.0992-1.124-.0145-.365-.1138-.688-.331-.927-.6243-.24-.2934-.384-.6498-.417-1.0239-.032-.3742.048-.7495.233-1.0784.185-.3291.465-.597.805-.77.226-.115.473-.1851.727-.2065.253-.0213.509.0066.752.0822.242.0757.468.1975.662.3585.195.161.356.3581.472.58z" fill="#74CBC7"/><path d="M50.0564 87.7894l-14.1139.4231.1541-65.7098h13.9598v65.2867zM68.3807 39.7462h-15.383v48.0432h15.383V39.7462zM86.7289 32.3611H72.7574v55.4284h13.9715V32.3611zM105.049 55.1442H89.6742v32.6452h15.3748V55.1442z" fill="#4990E2"/><path d="M31.0521 88.2125l22.1554-12.514 3.5146 3.2099 6.8593-5.1909 9.1761 11.4672 4.7204-2.7757 4.6453 2.7757 6.8633-1.0816 6.6455-2.547 4.582 3.6286 12.244 3.0278H31.0521z" fill="#003AA5"/><path d="M92.2009 36.2726s.8889-2.3492 1.4669-2.4656c.4818-.0969 2.3324.345-.6091 3.0355l-.8578-.5699z" fill="#FFC190"/><path d="M73.7892 44.057l10.3935 4.9428 9.1412-12.2155-1.0122-.7985-8.5243 8.3-9.4882-3.9039s-3.0876-1.5506-3.9811.535c.8869 1.3017 2.0768 2.3779 3.4711 3.1401z" fill="#74CBC7"/><path d="M63.7394 95.2836l-.7867.2443.1423 1.2403-.1622.5972-1.8027 2.2836 3.7084-2.1904-1.0991-2.175z" fill="#003AA5"/><path d="M64.2732 94.0192l.8262.0702.1424 1.2404.2965.5433 2.2851 1.8259-4.1155-1.3144.5653-2.3654z" fill="#003AA5"/><path d="M58.0503 60.7306l-.5376 18.829 5.3648 17.1462 1.6091-.7327-2.7873-15.2582 5.8473-19.4106-9.4963-.5737z" fill="#74CBC7"/><path d="M63.5219 61.6145l1.9096 18.3677-1.9096 15.2543h1.9096l3.7795-15.4908 3.4317-19.0151-9.1208.8839z" fill="#74CBC7"/><path d="M57.5127 63.5373l15.6558-1.3219-1.2731-11.289 3.0522-11.2501-6.9463-2.3725H57.0857l.4982 15.5803-.0712 10.6532z" fill="#003AA5"/><path d="M64.6409 34.6406l-.4666 3.0237s3.997 2.2137 3.4672.7754c-.4148-1.319-.7476-2.6615-.9963-4.0201l-2.0043.221z" fill="#EEF9FF"/><path d="M64.2652 31.2523c-.1818.628-.5337 1.8531-.0948 2.609.4388.7559 1.111 2.1167 2.0716 2.3531.9607.2365 1.4154-.6203 1.5221-1.0002.174-.6125 0-3.9154-1.5814-4.5551-1.1821-.4807-1.787.1164-1.9175.5932z" fill="#EEF9FF"/><path d="M66.8548 31.1981c-.2057.2174-.462.3829-.747.4821-.2851.0992-.5903.1293-.8898.0877-1.0555-.1395-.8144.8412-.7907.9498.0238.1086.348 1.5119 0 1.5739-.3479.0621-1.0319-1.6553-.6444-2.8997.1101-.3023.3081-.5663.5695-.7596.2614-.1932.5748-.3071.9015-.3278.3266-.0205.6523.0531.9368.2119.2845.1587.5154.3957.6641.6817zM64.7041 34.7879s1.1545.8722 2.214.628c.6682-.1551.8856-1.3569.8579-1.6011-.0277-.2442.5733 2.171-.9132 2.419-1.4865.2481-2.1587-1.4459-2.1587-1.4459z" fill="#2E3B57"/><path d="M104.575 3.14642c-3.773 1.0025-7.1585 3.07952-9.7279 5.96856-2.5694 2.88912-4.2082 6.46042-4.7076 10.26232-.5002 3.8019.1613 7.6638 1.9002 11.0974 1.7379 3.4335 4.4753 6.2845 7.8666 8.1925 3.3907 1.908 7.2817 2.7872 11.1817 2.5266 3.901-.2607 7.635-1.6494 10.73-3.9907 3.096-2.3415 5.414-5.5302 6.661-9.1633 1.247-3.633 1.368-7.5471.347-11.2475-.678-2.4576-1.844-4.7601-3.429-6.7761-1.587-2.01584-3.562-3.70574-5.813-4.97286-2.252-1.26721-4.737-2.08702-7.312-2.4125-2.576-.32548-5.191-.15029-7.697.51558zM113.909 36.92c-3.04.8073-6.256.7126-9.241-.2723-2.985-.9849-5.6049-2.8157-7.5293-5.2609-1.9234-2.4451-3.0649-5.3948-3.2795-8.476-.2147-3.0812.508-6.1556 2.0749-8.8344 1.5679-2.6787 3.91-4.84152 6.7309-6.21498 2.821-1.37337 5.994-1.89568 9.118-1.50087 3.123.39491 6.058 1.68914 8.431 3.71915 2.374 2.0301 4.08 4.7047 4.904 7.6857.547 1.9793.69 4.0449.422 6.0787-.267 2.0339-.94 3.9962-1.98 5.7748-1.042 1.7787-2.43 3.339-4.085 4.5917-1.656 1.2527-3.547 2.1734-5.566 2.7094z" fill="#8DC6FF"/><path d="M70.5396 57.9627c-.4478.3775-1.0299.5659-1.6189.5237-.5889-.0422-1.1369-.3113-1.5241-.7486-.3858-.438-.5784-1.0084-.5354-1.5856.0429-.5772.3181-1.114.7646-1.4925l26.8366-22.698c.4469-.3782 1.0278-.5671 1.6165-.5249.5887.0422 1.1365.3119 1.5222.7499.3847.439.577 1.0098.5343 1.5874-.0428.5775-.3177 1.1149-.7636 1.4945L70.5396 57.9627z" fill="#8DC6FF"/><path d="M78.3635 46.069s2.0637-1.4731 2.6132-1.2599c.4586.186 1.7514 1.5506-2.2218 2.198l-.3914-.9381z" fill="#EEF9FF"/><path d="M58.6316 42.5684l5.871 9.7537 14.5053-5.2181-.3953-1.2133-11.7894 2.326-5.6929-8.3931s-1.6922-2.9772-3.6215-1.7134c.0113 1.552.396 3.0794 1.1228 4.4582z" fill="#74CBC7"/></svg>