<svg width="140" height="100" fill="none" xmlns="http://www.w3.org/2000/svg"><g clip-path="url(#clip0)"><path d="M57.4199 4.97813c-3.27.85768-6.2111 2.66175-8.4512 5.18397-2.2402 2.5222-3.6788 5.6493-4.1338 8.9858-.455 3.3363.094 6.7322 1.5776 9.7579 1.4835 3.0258 3.835 5.5454 6.7569 7.2402 2.9219 1.6948 6.283 2.4888 9.6582 2.2813 3.3751-.2075 6.6127-1.407 9.3035-3.4467 2.6896-2.0399 4.7123-4.8283 5.8112-8.0128 1.098-3.1843 1.2238-6.6216.3599-9.877-1.1561-4.3632-4.0062-8.09039-7.9221-10.36184-3.9161-2.27154-8.5778-2.90125-12.9602-1.75083zm6.6498 25.11107c-1.7194.4505-3.5343.3834-5.2154-.193-1.681-.5763-3.1527-1.636-4.2289-3.0451-1.0762-1.4091-1.7087-3.1042-1.8174-4.8712-.1088-1.7669.3111-3.5264 1.2064-5.0557.8955-1.5295 2.2262-2.7601 3.8239-3.5365 1.5978-.7765 3.391-1.0637 5.1527-.8255 1.7617.2382 3.413.9911 4.745 2.1636 1.332 1.1726 2.285 2.7121 2.7383 4.4238.6072 2.2963.2735 4.7387-.9275 6.7902-1.201 2.0514-3.1711 3.5439-5.4771 4.1494z" fill="#C8DEF6"/><path d="M62.2749 7.79275l-7.4483 1.96822s-2.8426-5.5898-1.9017-7.1959C53.8658.958966 58.8196-.529034 60.3693.596851c1.5498 1.125799 1.9056 7.195899 1.9056 7.195899z" fill="#C8DEF6"/><path d="M68.3197 33.4116l-7.4445 1.9682s.2926 6.2512 1.9017 7.1881c1.6091.9369 6.6617-.2086 7.4484-1.9682.763-1.7006-1.9056-7.1881-1.9056-7.1881z" fill="#fff"/><path d="M51.8812 11.5364l-3.0007 7.066s-6.1714-1.1809-6.8751-2.8933c-.7038-1.7123 1.1505-6.53456 3.0007-7.08571 1.8502-.55115 6.8751 2.91301 6.8751 2.91301zM48.6512 21.9563l.7274 7.6408s-5.9934 1.8816-7.4285.6968c-1.4351-1.1849-2.1032-6.2984-.7275-7.6368 1.3758-1.3385 7.4286-.7008 7.4286-.7008zM75.5345 22.2476l-1.6644-7.4794s5.7167-2.6059 7.2866-1.6061c1.5699.9999 2.8622 5.9954 1.6644 7.4794-1.1978 1.4841-7.2866 1.6061-7.2866 1.6061zM65.2795 7.76528l6.1161 4.67262s4.7834-4.05462 4.5423-5.90482C75.6855 4.62782 71.7 1.4157 69.8261 1.86444c-1.8028.44085-4.5466 5.90084-4.5466 5.90084z" fill="#C8DEF6"/><path d="M57.1274 35.8011l-6.1043-4.6688s-4.7876 4.0507-4.5425 5.9048c.2451 1.8541 4.2421 5.1174 6.1121 4.6687 1.87-.4488 4.5347-5.9047 4.5347-5.9047zM72.0521 32.1243l3.0002-7.0857s6.172 1.181 6.8711 2.8934c.7 1.7123-1.1458 6.5385-3.0001 7.0857-1.8067.5157-6.8712-2.8934-6.8712-2.8934z" fill="#fff"/><path d="M95.6301 25.5621c-1.5812.4162-3.0036 1.2899-4.0861 2.5108-1.0824 1.2209-1.778 2.734-1.9966 4.3482-.2195 1.614.0477 3.2566.7658 4.7199.7182 1.4632 1.8562 2.6816 3.27 3.5007 1.4146.8193 3.04 1.2027 4.6732 1.1017 1.6324-.101 3.1976-.6817 4.4996-1.6688 1.301-.9872 2.279-2.3364 2.81-3.8769.531-1.5406.592-3.2033.174-4.778-.278-1.0458-.759-2.0269-1.417-2.8875-.658-.8604-1.48-1.5833-2.419-2.1272-.939-.544-1.9762-.8984-3.0526-1.0431-1.0764-.1446-2.1709-.0766-3.2213.2002zm3.23 12.1481c-.8309.2185-1.7095.1866-2.5231-.0918-.8136-.2784-1.5257-.7907-2.0461-1.4722-.5213-.6816-.8274-1.5015-.8804-2.3565-.0529-.8548.1501-1.706.5829-2.446.4328-.7401 1.0764-1.3357 1.8492-1.7114.7737-.3758 1.641-.5149 2.4928-.3998.8526.1152 1.6514.4795 2.2956 1.0467.645.5673 1.106 1.3122 1.325 2.1404.294 1.1103.133 2.2914-.447 3.2836-.581.9921-1.5335 1.714-2.6489 2.007z" fill="#C8DEF6"/><path d="M97.9832 26.9242l-3.6056.9448s-1.3764-2.6966-.9219-3.476c.4553-.7794 2.8509-1.4958 3.602-.9448.7512.5512.9255 3.476.9255 3.476zM100.904 39.3163l-3.6008.9487s.1422 3.0233.9211 3.476c.7789.4527 3.2217-.0985 3.6057-.9448.383-.8463-.926-3.4799-.926-3.4799zM92.95 28.7351l-1.4511 3.4168s-2.9845-.5668-3.3245-1.4014c-.34-.8345.5533-3.1492 1.451-3.4169.8969-.2677 3.3246 1.4015 3.3246 1.4015zM91.3801 33.7777l.3521 3.6924s-2.9021.9133-3.5934.3385c-.6921-.5747-1.02-3.0468-.3521-3.6924.6678-.6456 3.5934-.3385 3.5934-.3385zM104.396 33.9233l-.791-3.6216s2.767-1.2596 3.522-.7873c.755.4724 1.388 2.9013.791 3.6295-.597.7282-3.522.7794-3.522.7794zM99.4343 26.9124l2.9607 2.2556s2.313-1.9682 2.194-2.854c-.118-.8857-2.048-2.4918-2.961-2.2595-.914.2323-2.1937 2.8579-2.1937 2.8579zM95.4879 40.4737l-2.9534-2.2596s-2.3201 1.9682-2.2013 2.854c.118.8857 2.0556 2.476 2.9568 2.2556.9012-.2204 2.1979-2.85 2.1979-2.85zM102.711 38.6943l1.451-3.4168s2.985.5668 3.325 1.4013c.34.8346-.554 3.1493-1.451 3.417-.897.2677-3.325-1.4015-3.325-1.4015z" fill="#C8DEF6"/><path d="M62.6662 29.9475h-4.764V93.648h4.764V29.9475z" fill="#B9DDFF"/><path d="M103.648 69.7456c-.996-.3937 3.064-6.1292-1.356-8.4596-5.8041-3.0665.589-12.7464-1.854-12.5142-3.6491.3582-4.6691 6.0189-4.0091 12.3371.8465 8.0698-3.3054 5.9047-3.3844 5.8535-2.3722-1.0628-3.3878-.0354-2.3479 6.9361 1.04 6.9715 3.74 12.3485 6.0324 12.006.1379-.0217.2715-.0641.3955-.1257.1457.0416.2958.0668.4467.0746.3487.0121.6939-.0642 1.0044-.2203 2.8974.15 3.0754-1.0709 5.5034-7.3177 2.689-6.8299 2.487-7.4479-.431-8.5698z" fill="#74CBC7"/><path d="M103.134 95.7621H92.8346L91.708 83.9994h12.552l-1.126 11.7627z" fill="#C8DEF6"/><path d="M84.5888 54.527V22.5468H37.099v55.4261h37.6844c.2489 1.0925.863 2.0689 1.7425 2.7687.8795.6989 1.9715 1.0805 3.0964 1.0805 1.1259 0 2.2178-.3816 3.0973-1.0805.8795-.6998 1.4936-1.6762 1.7425-2.7687.079-.353.1197-.7128.1223-1.0744V56.8299v-.2126l.0044-2.0903z" fill="#B9DDFF"/><path d="M74.6611 76.882v-2.6725H32.754v2.8858c.0126.9512.3133 1.8765.8629 2.6543.5494.7787 1.3221 1.3735 2.2169 1.7074.5323.1968 1.0929.3087 1.6605.3304l-.0435.0199h42.1715c-1.3131 0-2.5725-.5186-3.5023-1.442-.9298-.9227-1.4546-2.1757-1.4589-3.4833z" fill="#74CBC7"/><path d="M44.3181 27.121h-2.4156v10.3885h2.4156V27.121z" fill="#4990E2"/><path d="M47.4888 29.8647h-2.6607v7.6448h2.6607v-7.6448z" fill="#003AA5"/><path d="M50.6635 28.6917h-2.4156v8.8178h2.4156v-8.8178z" fill="#4990E2"/><path d="M53.838 32.3172h-2.6607v5.1923h2.6607v-5.1923z" fill="#003AA5"/><path d="M56.9693 27.121h-2.4155v10.3885h2.4155V27.121z" fill="#4990E2"/><path d="M60.1439 29.8647h-2.6608v7.6448h2.6608v-7.6448z" fill="#003AA5"/><path d="M63.3186 28.6917H60.899v8.8178h2.4196v-8.8178z" fill="#4990E2"/><path d="M66.4893 32.3172h-2.6606v5.1923h2.6606v-5.1923z" fill="#003AA5"/><path d="M69.6244 27.121h-2.4155v10.3885h2.4155V27.121z" fill="#4990E2"/><path d="M72.7955 29.8647h-2.6611v7.6448h2.6611v-7.6448z" fill="#003AA5"/><path d="M75.9734 28.6917h-2.419v8.8178h2.419v-8.8178z" fill="#4990E2"/><path d="M79.1401 32.3172h-2.6602v5.1923h2.6602v-5.1923z" fill="#003AA5"/><path d="M49.2877 58.5698c-1.0513.5049-2.2292.6883-3.3851.5272-1.156-.1612-2.238-.6597-3.1096-1.4327-.8716-.7731-1.4936-1.7859-1.7876-2.9107-.2939-1.1247-.2465-2.311.1361-3.4089.3826-1.098 1.0834-2.0584 2.0138-2.7602.9305-.7017 2.0489-1.1131 3.214-1.1825 1.1652-.0693 2.3248.2066 3.3325.7931 1.0078.5863 1.8184 1.4569 2.3296 2.5017.3401.6961.5389 1.4522.5851 2.225.046.7727-.0615 1.547-.3163 2.2783-.2549.7314-.6521 1.4055-1.1691 1.9837-.5169.5782-1.1433 1.0492-1.8434 1.386z" fill="#4990E2"/><path d="M50.114 48.4688l-3.4 4.8064 5.867.6731c.1283-1.1099-.0623-2.2333-.5496-3.2397-.4362-.8976-1.0964-1.6688-1.9174-2.2398z" fill="#74CBC7"/><path d="M49.2877 58.5698c.8957-.4316 1.6672-1.0815 2.2429-1.8895.5758-.8079.9371-1.7477 1.0504-2.732l-5.867-.6731-3.5581 4.6962c.8677.652 1.8994 1.0528 2.9813 1.1584 1.0819.1055 2.1721-.0883 3.1505-.56z" fill="#003AA5"/><path d="M44.8874 47.6854l1.8265 5.5898.1898.0236 3.8072-4.3302c-.7691-.7091-1.7137-1.2017-2.7372-1.4273-1.0234-.2255-2.0885-.1758-3.0863.1441z" fill="#4990E2"/><path d="M50.3037 53.2753c.0007.708-.2094 1.4004-.6041 1.9894-.3945.5891-.9557 1.0483-1.6125 1.3196-.6569.2713-1.3798.3425-2.0772.2046-.6976-.138-1.3383-.4789-1.8411-.9795-.5028-.5007-.8451-1.1387-.9837-1.8332-.1385-.6944-.0671-1.4143.2055-2.0682.2725-.654.7337-1.2128 1.3253-1.6057.5916-.3929 1.2869-.6022 1.998-.6015.4715 0 .9382.0925 1.3738.2721.4355.1796.8312.443 1.1646.7748.3333.332.5977.726.7781 1.1596.1805.4337.2733.8985.2733 1.368z" fill="#B9DDFF"/><path d="M63.8129 58.5698c-1.0513.5049-2.2293.6883-3.3853.5272-1.1559-.1612-2.2379-.6597-3.1095-1.4327-.8716-.7731-1.4936-1.7859-1.7875-2.9107-.294-1.1247-.2466-2.311.136-3.4089.3826-1.098 1.0835-2.0584 2.0139-2.7602.9304-.7017 2.0488-1.1131 3.2139-1.1825 1.1651-.0693 2.3248.2066 3.3325.7931 1.0078.5863 1.8184 1.4569 2.3296 2.5017.3407.696.5399 1.4522.5862 2.2251.0464.7729-.0609 1.5473-.3159 2.2787-.2549.7316-.6523 1.4058-1.1695 1.9839-.5173.5782-1.1441 1.0489-1.8444 1.3853z" fill="#4990E2"/><path d="M64.6431 48.4688l-3.4 4.8064 5.863.6731c.1238-1.0495-.0399-2.1129-.4735-3.0776-.4336-.9646-1.121-1.7945-1.9895-2.4019z" fill="#74CBC7"/><path d="M63.8129 58.5698c.8965-.4304 1.6688-1.0799 2.2447-1.8882.576-.8081.9367-1.7486 1.0485-2.7333l-5.863-.6731-3.5581 4.6963c.867.652 1.898 1.0529 2.9793 1.1585 1.0813.1055 2.1709-.0883 3.1486-.5602z" fill="#003AA5"/><path d="M59.4165 47.6854l1.8265 5.5898.1898.0236 3.8072-4.3302c-.769-.7091-1.7137-1.2017-2.7371-1.4273-1.0235-.2255-2.0887-.1758-3.0864.1441z" fill="#4990E2"/><path d="M64.8329 53.2753c.0007.708-.2095 1.4004-.6041 1.9894-.3946.5891-.9558 1.0483-1.6126 1.3196-.6569.2713-1.3797.3425-2.0772.2046-.6975-.138-1.3382-.4789-1.8411-.9795-.5028-.5007-.8451-1.1387-.9836-1.8332-.1386-.6944-.0671-1.4143.2054-2.0682.2725-.654.7337-1.2128 1.3253-1.6057.5916-.3929 1.2869-.6022 1.9981-.6015.4714 0 .9382.0925 1.3737.2721.4356.1796.8313.443 1.1646.7748.3334.332.5978.726.7782 1.1596.1804.4337.2733.8985.2733 1.368z" fill="#B9DDFF"/><path d="M78.1401 58.5698c-1.0513.5049-2.2291.6883-3.3853.5272-1.1562-.1612-2.2378-.6597-3.1094-1.4327-.8715-.7731-1.4936-1.7859-1.7876-2.9107-.2938-1.1247-.2465-2.311.1361-3.4089.3827-1.098 1.0834-2.0584 2.014-2.7602.9307-.7017 2.0487-1.1131 3.2135-1.1825 1.1657-.0693 2.3254.2066 3.3332.7931 1.007.5863 1.818 1.4569 2.3289 2.5017.3408.696.5403 1.4522.5863 2.2251.0468.7729-.0607 1.5473-.3157 2.2787-.255.7316-.6523 1.4058-1.1692 1.9839-.5178.5782-1.144 1.0489-1.8448 1.3853z" fill="#4990E2"/><path d="M78.971 48.4688l-3.4044 4.8064 5.8668.6731c.124-1.0495-.0399-2.1129-.4736-3.0776-.4337-.9646-1.1206-1.7945-1.9888-2.4019z" fill="#74CBC7"/><path d="M78.14 58.5698c.896-.431 1.6679-1.0807 2.2439-1.8888.5759-.8081.9367-1.7482 1.0494-2.7327l-5.8667-.6731-3.5587 4.6962c.8682.6528 1.8995 1.0541 2.9819 1.1597 1.0816.1056 2.1719-.0886 3.1502-.5613z" fill="#003AA5"/><path d="M73.7443 47.6854l1.8223 5.5898.19.0236 3.8111-4.3302c-.7694-.7091-1.7139-1.2017-2.7374-1.4273-1.0234-.2255-2.0885-.1758-3.086.1441z" fill="#4990E2"/><path d="M79.1566 53.2752c0 .7069-.2108 1.398-.6054 1.9858-.3947.5878-.955 1.0459-1.6107 1.3165-.6566.2705-1.3782.3413-2.0747.2034-.6956-.138-1.3357-.4784-1.8379-.9782-.5022-.4999-.8439-1.1368-.9818-1.8302-.1388-.6934-.0677-1.412.2038-2.0652.2715-.6531.732-1.2113 1.3218-1.6041.5907-.3927 1.2846-.6024 1.9949-.6024.4719-.0005.9385.0916 1.3739.2711.4363.1794.8318.4427 1.1657.7747.3331.332.5976.7262.778 1.1601.1804.4339.2724.899.2724 1.3685zM74.3801 93.648H47.7814v2.7913h26.5987V93.648z" fill="#B9DDFF"/><path d="M28.2867 91.9831l-.68.2203.1304 1.0865-.1463.5194-1.5577 1.9996 3.2024-1.9207-.9488-1.9051z" fill="#003AA5"/><path d="M28.7452 90.8845l.7116.0555.1266 1.0899.253.4726 1.9727 1.5982-3.5502-1.1499.4863-2.0663z" fill="#003AA5"/><path d="M23.4595 61.0104l-.5376 17.2105 4.6215 15.0135 1.3917-.6452-2.4077-13.3529 4.2579-13.9114-7.3258-4.3145z" fill="#4990E2"/><path d="M29.7417 64.821v13.7701L28.101 91.9432h1.6407l3.2616-13.5611 2.9572-16.6513-6.2188 3.0902z" fill="#4990E2"/><path d="M56.1627 54.0232s1.9451-1.0314 2.3721-.7874c.427.2441 1.3086 1.555-2.1626 1.6377l-.2095-.8503z" fill="#EEF9FF"/><path d="M39.3249 50.0433l4.5821 8.8139 12.7461-3.8775-.2847-1.0786-10.2791 1.4565-4.4753-7.6172s-1.3087-2.6768-3.0363-1.669c-.0667 1.364.1893 2.7244.7472 3.9719z" fill="#74CBC7"/><path d="M34.1142 43.6032c-1.6604-.0275-5.44 1.2793-6.5113 3.3736-1.0715 2.0943-1.5815 7.4125-1.5815 7.4125l-2.5579 6.6212s5.0051 7.0345 12.5128 2.4682c0 0 1.8266-6.7984 3.064-9.6681.7195-1.6691 3.0441-6.2079 1.0239-7.8376-2.9572-2.3855-4.2619-2.3383-5.95-2.3698z" fill="#003AA5"/><path d="M36.2017 41.509l-1.2533 2.3619s2.6212 2.9524 2.6015 1.6179c.0419-1.208.1582-2.4121.3479-3.6058l-1.6961-.374z" fill="#EEF9FF"/><path d="M36.8657 38.5999c-.3242.4684-.9647 1.3817-.8263 2.1296.1384.748.2965 2.0627 1.0121 2.5312.7156.4685 1.3324-.1181 1.53-.3936.3203-.4528 1.1307-3.2358.0277-4.2082-.8302-.74-1.4944-.4172-1.7435-.059z" fill="#EEF9FF"/><path d="M38.9968 39.2848c-.2315.1217-.4894.1853-.7512.1853s-.5196-.0636-.7512-.1853c-.8144-.3936-.9013.4724-.9251.5669-.0237.0944-.1502 1.3462-.4547 1.2991-.3043-.0473-.3636-1.6613.3124-2.5825.1761-.2242.4152-.3913.6868-.48.2717-.0888.5637-.0952.839-.0185.2753.0769.5215.2333.7074.4495.1859.2164.303.4828.3366.7655zM36.2134 41.6467s.684 1.0471 1.617 1.1416c.5891.063 1.1149-.87 1.1624-1.0825.0474-.2126-.1581 1.9682-1.4391 1.7438-1.2809-.2243-1.3403-1.8029-1.3403-1.8029z" fill="#171B23"/><path d="M43.0887 57.936s2.1191-.6181 2.4947-.2834c.3756.3346.9607 1.7911-2.4551 1.1809l-.0396-.8975z" fill="#EEF9FF"/><path d="M27.4447 50.6141l2.6765 9.5539 13.2719-1.2045-.0594-1.1101-10.3462-.6653-2.8386-8.3611s-1.2414-3.6925-2.6252-2.2517c-.6997.7322-.597 2.0666-.079 4.0388z" fill="#74CBC7"/></g><defs><clipPath id="clip0"><path fill="#fff" d="M0 0h140v100H0z"/></clipPath></defs></svg>