<svg width="140" height="103" fill="none" xmlns="http://www.w3.org/2000/svg"><path d="M87.0377 9.35512c-2.9489.77718-5.601 2.41068-7.6208 4.69388-2.0197 2.2832-3.3164 5.1135-3.726 8.133-.4096 3.0194.0863 6.0924 1.4249 8.8303 1.3386 2.738 3.4599 5.0178 6.0954 6.5511 2.6356 1.5334 5.6671 2.2515 8.7112 2.0635 3.0441-.1881 5.964-1.2738 8.3906-3.1199 2.426-1.846 4.25-4.3696 5.241-7.2514.991-2.8818 1.104-5.9925.326-8.9384-1.045-3.9497-3.616-7.3232-7.1497-9.3788-3.5332-2.05574-7.7391-2.62522-11.6926-1.58328zm6.007 22.72418c-1.5509.4103-3.1889.3519-4.7066-.168-1.5177-.5198-2.847-1.4778-3.8197-2.7526-.9726-1.2749-1.545-2.8093-1.6445-4.4091-.0996-1.5999.278-3.1933 1.085-4.5787.807-1.3855 2.0073-2.5007 3.4488-3.2044 1.4416-.7038 3.0596-.9646 4.6495-.7493 1.5899.2152 3.0803.8966 4.2824 1.9583 1.2022 1.0615 2.0621 2.4554 2.4712 4.0055.5479 2.0764.2483 4.2853-.8328 6.1413-1.0812 1.8559-2.8555 3.2072-4.9333 3.757z" fill="#BDE1FF"/><path d="M91.4169 11.9021l-6.7201 1.7598s-2.5655-5.04841-1.719-6.50566c.8758-1.5028 5.32-2.79743 6.7167-1.77279 1.3968 1.02464 1.7224 6.51865 1.7224 6.51865zM96.8702 35.0881l-6.72 1.7728s.2637 5.6567 1.719 6.5056c1.4554.849 6.007-.1918 6.72-1.776.687-1.5321-1.719-6.5024-1.719-6.5024zM82.0463 15.2883l-2.7056 6.395s-5.5674-1.0636-6.186-2.6218c-.6187-1.558 1.0125-5.9103 2.6828-6.3754 1.6181-.4783 6.2088 2.6022 6.2088 2.6022zM79.1161 24.7214l.6512 6.9122s-5.4079 1.7046-6.7037.6311c-1.2958-1.0734-1.8982-5.699-.6511-6.9122 1.2469-1.2134 6.7036-.6311 6.7036-.6311zM103.388 25.0011l-1.5-6.7853s5.156-2.3583 6.572-1.4541c1.418.9043 2.582 5.4257 1.502 6.7822-1.082 1.3564-6.574 1.4572-6.574 1.4572zM94.1255 11.8793l5.5152 4.2286s4.3173-3.6724 4.0993-5.3411c-.228-1.72073-3.8258-4.632-5.5122-4.22866-1.6377.39685-4.1023 5.34116-4.1023 5.34116zM86.7706 37.2513l-5.5122-4.2287s-4.3204 3.6692-4.0958 5.3379c.228 1.7208 3.8257 4.6352 5.5154 4.2286 1.6474-.3968 4.0926-5.3378 4.0926-5.3378zM100.234 33.9236l2.706-6.3918s5.57 1.0572 6.185 2.6023c.616 1.545-1.035 5.9137-2.706 6.395-1.605.4782-6.185-2.6055-6.185-2.6055z" fill="#BDE1FF"/><path d="M118.281 34.4473c-1.427.3761-2.71 1.1664-3.686 2.2708-.977 1.1045-1.604 2.4735-1.803 3.9339-.198 1.4605.042 2.9468.69 4.2711.647 1.3243 1.673 2.4272 2.947 3.169 1.275.7418 2.741 1.0894 4.214.9987 1.473-.0907 2.885-.6155 4.058-1.5081 1.174-.8926 2.057-2.113 2.537-3.5067s.535-2.8983.159-4.3233c-.25-.9466-.684-1.8345-1.277-2.6134-.594-.7789-1.335-1.4333-2.181-1.926-.847-.4926-1.782-.8139-2.753-.9453-.971-.1315-1.959-.0705-2.905.1793zm2.903 10.9945c-.746.1938-1.534.1624-2.263-.0906-.73-.2529-1.367-.7159-1.833-1.3305-.466-.6145-.739-1.3533-.786-2.1229-.046-.7697.137-1.5357.526-2.2016.39-.666.967-1.2018 1.661-1.5401.693-.3383 1.472-.4638 2.236-.3606.765.1031 1.482.4303 2.061.94.578.5098.993 1.1796 1.192 1.9246.133.4973.165 1.0158.096 1.5257-.068.51-.238 1.0012-.498 1.4457-.259.4443-.604.8331-1.014 1.1437-.411.3108-.879.5373-1.378.6666z" fill="#E6F5FF"/><path d="M120.4 35.6801l-3.256.8555s-1.24-2.4396-.833-3.1454c.406-.7059 2.574-1.3532 3.255-.8555.681.4977.834 3.1454.834 3.1454zM123.038 46.8991l-3.257.8588s.131 2.7357.831 3.1455c.7.4099 2.911-.0911 3.256-.8588.344-.7676-.83-3.1455-.83-3.1455zM115.861 37.3196l-1.301 3.0935s-2.697-.5107-3.002-1.2687c-.307-.7579.501-2.8592 1.301-3.0934.802-.2342 3.002 1.2686 3.002 1.2686zM114.445 41.8834l.326 3.3438s-2.605.8262-3.256.3253c-.651-.501-.918-2.7584-.326-3.3471.593-.5888 3.256-.322 3.256-.322zM126.193 42.0166l-.727-3.2788s2.494-1.1417 3.181-.7026c.687.4391 1.26 2.625.726 3.2755-.533.6506-3.18.7059-3.18.7059zM121.709 35.6671l2.67 2.0461s2.09-1.776 1.982-2.5827c-.107-.8067-1.849-2.2412-2.666-2.046-.818.1951-1.986 2.5826-1.986 2.5826zM118.15 47.9465l-2.666-2.046s-2.09 1.776-1.984 2.5827c.108.8067 1.85 2.2412 2.668 2.0428.816-.1984 1.982-2.5795 1.982-2.5795zM124.665 46.3365l1.303-3.0935s2.692.5107 3.001 1.2654c.31.7546-.501 2.8625-1.302 3.0934-.801.231-3.002-1.2653-3.002-1.2653z" fill="#E6F5FF"/><path d="M88.9976 88.5222c-6.5225 3.1543-13.8346 4.3054-21.012 3.3081-7.1773-.9975-13.8974-4.0988-19.3107-8.9116-5.4133-4.813-9.2766-11.1215-11.1013-18.128-1.8249-7.0064-1.5293-14.3962.8493-21.2348s6.7334-12.819 12.5138-17.1851c5.7804-4.3659 12.7268-6.9217 19.9609-7.3437 7.2341-.422 14.431 1.3084 20.6808 4.9726 6.2497 3.6642 11.2716 9.0976 14.4306 15.6131 2.098 4.3274 3.322 9.0251 3.602 13.8251.281 4.8-.389 9.6082-1.968 14.1499-1.58 4.5417-4.039 8.7281-7.238 12.32-3.1998 3.592-7.0758 6.5192-11.4074 8.6144z" fill="#4990E2"/><path d="M94.1385 25.6615L73.0343 55.5874l36.3777 4.1929c.769-6.5344-.244-13.1551-2.933-19.1613-2.688-6.0062-6.9524-11.1745-12.3405-14.9575z" fill="#4990E2"/><path d="M88.9976 88.5222c5.5525-2.6857 10.3356-6.73 13.9044-11.7573 3.569-5.0272 5.808-10.8742 6.509-16.9976l-36.3768-4.1929-22.0451 29.2168c5.377 4.0587 11.7716 6.5547 18.4784 7.2131 6.7067.6583 13.4653-.5467 19.5301-3.4821z" fill="#003AA5"/><path d="M61.7139 20.7953l11.3204 34.7791 1.1754.1333 23.6177-27.0634c-4.7837-4.3877-10.6484-7.4266-16.9938-8.8058-6.3456-1.3791-12.944-1.049-19.1197.9568z" fill="#74CBC7"/><path d="M95.301 55.5744c.0007 4.4002-1.3048 8.7016-3.7512 12.3605-2.4464 3.6588-5.924 6.5106-9.9928 8.1948-4.0687 1.6841-8.5461 2.1249-12.8657 1.2667-4.3196-.8583-8.2874-2.9771-11.4016-6.0884-3.1143-3.1114-5.235-7.0756-6.094-11.3911-.8591-4.3157-.4179-8.7889 1.2679-12.854 1.6857-4.065 4.5401-7.5393 8.2024-9.9835 3.6622-2.4442 7.9676-3.7484 12.3718-3.7477 5.904.0017 11.5657 2.3457 15.7406 6.5166 4.1748 4.1709 6.5209 9.8275 6.5226 15.7261z" fill="#fff"/><path d="M78.1461 44.98H18.532v26.7902h59.6141V44.98z" fill="#EEF9FF"/><path d="M26.6554 51.9801h-4.2781v16.4592h4.2781V51.9801z" fill="#4990E2"/><path d="M32.2652 56.3257H27.554v12.1136h4.7112V56.3257z" fill="#003AA5"/><path d="M37.8815 54.4651h-4.2749v13.9742h4.2749V54.4651z" fill="#4990E2"/><path d="M43.4944 60.2097h-4.7079v8.2296h4.7079v-8.2296zM51.1454 59.5721l3.233-2.0818 2.0382 1.0409 3.334 3.087 2.9139-2.0461 1.0484.6017 1.4488.8263 1.9796.6181s2.6046.5172 3.2265.6212l1.3544 2.6836 3.2265-.4131v3.9294H51.1454v-8.8672z" fill="#003AA5"/><path d="M51.1066 65.9541l3.2753-1.9744 1.4489 1.4604 1.26.514 3.2818-.9856 1.5628.9856 2.2888.9303 2.9173.5173h5.2288l2.5786 1.0376H51.1457l-.0391-2.4852z" fill="#4990E2"/><path d="M69.6647 12.1948h-33.46v26.7935h33.46V12.1948z" fill="#EEF9FF"/><path d="M29.8817 82.3321l10.7051-2.5274 6.7526 1.2654 11.0274 3.7472 9.6503-2.4852 3.4804.7318 4.7926 1.0052 6.5474.7482s8.6215.6278 10.6856.7513l4.4768 3.2529 10.6891-.501v4.7752H29.898l-.0163-10.7636z" fill="#BDE1FF"/><path d="M29.7614 90.0803l10.8255-2.394 4.8056 1.7662 4.1837.6278 10.8614-1.197 5.1703 1.197 7.5828 1.1287 9.6469.6279h17.3084l8.543 1.2588H29.8818l-.1204-3.0154z" fill="#003AA5"/><path d="M82.0174 56.0655c-1.5317.7418-3.2491 1.0131-4.9351.7797-1.686-.2336-3.2648-.9614-4.5367-2.0914-1.272-1.1301-2.1799-2.6115-2.609-4.2572-.429-1.6456-.36-3.3814.1984-4.9878.5584-1.6064 1.5812-3.0113 2.9389-4.037 1.3577-1.0256 2.9893-1.6259 4.6885-1.725 1.6993-.0991 3.3897.3075 4.8576 1.1684 1.468.8609 2.6473 2.1373 3.389 3.6679.9942 2.0516 1.1322 4.4136.3836 6.5669-.7485 2.1532-2.3223 3.9213-4.3752 4.9155z" fill="#74CBC7"/><path d="M83.2219 41.3108l-4.9554 7.026 8.5432.9759c.179-1.5332-.0592-3.0863-.6895-4.4958-.6303-1.4093-1.6293-2.6228-2.8918-3.5126l-.0065.0065z" fill="#BDE1FF"/><path d="M82.0173 56.0655c1.3033-.6314 2.4258-1.5814 3.2637-2.7618.8378-1.1805 1.3637-2.5533 1.5288-3.9909l-8.5433-.9759-5.1767 6.8601c1.2638.9519 2.7661 1.5368 4.3414 1.69 1.5752.1532 3.1622-.131 4.5861-.8215z" fill="#003AA5"/><path d="M75.6065 40.1625l2.66 8.1678.2767.0293 5.5349-6.3527c-1.1225-1.0288-2.4981-1.7416-3.9864-2.0656-1.4884-.3241-3.0361-.2477-4.4852.2212z" fill="#4990E2"/><path d="M92.0775 49.7291l-4.2522 7.5368-10.9524-3.7701.2767-.9303 8.8753 1.5842 4.1381-6.5057s1.221-2.2965 2.6894-1.3597c.0174 1.1933-.2481 2.3737-.7749 3.4448z" fill="#EEF9FF"/><path d="M77.342 52.6957s-1.5726-1.0963-1.9762-.9238c-.3257.1496-1.3024 1.2132 1.6962 1.6459l.28-.7221zM102.347 49.8136l-6.9515 5.159-8.4651-7.9076.6511-.7352 7.4331 5.0647 6.4334-4.245s2.052-1.5971 3.008-.1463c-.472 1.0896-1.195 2.0526-2.109 2.8104z" fill="#EEF9FF"/><path d="M87.6823 46.5153s-.9768-1.6264-1.4292-1.6492c-.3712 0-1.6735.5823.8724 2.1924l.5568-.5432z" fill="#EEF9FF"/><path d="M95.7699 93.0956l-.5828-.0747-.2865.8586-.2865.3449-1.8623.9563 3.0604-.3286-.0423-1.7565zM98.1465 91.9864l-.5242.2668.2344.8685-.0488.4456-1.0256 1.8249 2.3734-1.9615-1.0092-1.4443z" fill="#003AA5"/><path d="M105.215 62.041l-5.343 17.3895-3.653 14.4978-1.3837-.2894 1.8135-15.4868 1.8818-17.5163 6.6844 1.4052z" fill="#4990E2"/><path d="M92.5401 59.3802l-2.9432 16.2706 7.7194 17.0675 1.5303-.4001-4.6785-14.9272 6.0129-15.4443.193-.9238-7.8339-1.6427z" fill="#4990E2"/><path d="M105.319 64.113l-13.6451.6311 1.0451-9.6089-.4428-9.5469 5.3819-1.3434 6.7499.3057.429 9.2152.482 10.3472z" fill="#74CBC7"/><path d="M92.8398 45.611s2.279 1.1612-1.2666 5.3801l-2.3214-2.2769s1.5042-3.5001 3.588-3.1032zM104.68 44.6547s2.531.4164.431 5.5102l-2.908-1.4735s.355-3.7863 2.477-4.0367z" fill="#74CBC7"/><path d="M98.827 44.7718c.0522.4814-1.8819.5725-1.9209.0911-.0749-.8089-.0497-1.6239.0748-2.4266l1.4-.592s.3419 1.9289.4461 2.9275z" fill="#EEF9FF"/><path d="M97.2642 43.2007c-.1303.0195-1.3251.2798-1.5368-.2992-.2116-.5791-.2506-2.7519 0-3.2952.2507-.5431 1.1689-.8912 1.628-.7253.4591.1658 1.6702 1.3597 1.1232 3.5228-.2974.4011-.7279.6835-1.2144.7969z" fill="#EEF9FF"/><path d="M95.4671 39.6194s.14.7416.6511.6505c.5112-.0911 1.4164-.283 1.527.1138.1107.3969-.2018 1.7826.0977 2.1079.2995.3253 1.0256.6993 1.1591.1951.1335-.5041.2996-3.578-1.348-4.2286.0164.0097-1.605-.257-2.0869 1.1613zM38.2849 26.7869l4.021-2.0655 2.5331 1.0409 4.1413 3.0869 3.6238-2.046 1.3023.6018 1.8004.8262 2.4581.618s3.2364.5172 4.0112.6213l1.6833 2.6836 4.0112-.4131v3.9326H38.2849v-8.8867z" fill="#003AA5"/><path d="M38.2397 33.1723l4.0665-1.9778 1.8036 1.4605 1.5726.5173 4.0763-.989 1.9405.989 2.8455.9303 3.6238.5139h6.4986l3.2069 1.0409H38.2852l-.0455-2.4851z" fill="#4990E2"/></svg>