<svg width="140" height="103" fill="none" xmlns="http://www.w3.org/2000/svg"><g clip-path="url(#clip0)"><path d="M53.7714 35.2682c-4.0129 1.0619-7.6214 3.2924-10.3693 6.4094-2.7479 3.117-4.5118 6.9805-5.0685 11.1021-.5568 4.1215.1184 8.316 1.9405 12.053 1.822 3.737 4.7088 6.8486 8.2955 8.9414 3.5867 2.0929 7.7121 3.0729 11.8546 2.8163 4.1425-.2567 8.116-1.7385 11.4181-4.2583 3.3021-2.5196 5.7844-5.9639 7.1332-9.8973 1.3487-3.9335 1.5033-8.1793.4441-12.2008-.7034-2.6703-1.9247-5.1758-3.5943-7.3732-1.6697-2.1972-3.7548-4.0435-6.1365-5.4333-2.3817-1.3897-5.0133-2.2956-7.7444-2.6662-2.7312-.3705-5.5083-.1983-8.173.5069zm8.1752 31.0444c-2.1103.5581-4.3382.4767-6.4024-.234-2.0641-.7108-3.8714-2.0189-5.1937-3.7589-1.3223-1.7401-2.1-3.834-2.2347-6.0169-.1349-2.183.3793-4.3569 1.4773-6.2472 1.0981-1.8901 2.7308-3.4115 4.6917-4.3718 1.9609-.9604 4.1618-1.3166 6.3247-1.0234 2.1628.2931 4.1904 1.2223 5.8263 2.6701 1.6358 1.4478 2.8066 3.3491 3.3642 5.4637.742 2.834.3318 5.8472-1.1405 8.3786-1.4722 2.5313-3.8865 4.374-6.7129 5.1237v.0161z" fill="#E6F5FF"/><path d="M59.7297 38.7436l-9.1448 2.419s-3.4922-6.8942-2.3376-8.8698c1.1869-2.0522 7.2419-3.8262 9.1449-2.419 1.903 1.407 2.3375 8.8698 2.3375 8.8698zM67.1569 70.4008l-9.1449 2.4191s.3581 7.7248 2.3335 8.8699c2.0438 1.2094 8.1793-.2581 9.1488-2.4191.9375-2.0844-2.3374-8.8699-2.3374-8.8699zM46.968 43.372l-3.6853 8.7328s-7.5798-1.4474-8.4488-3.5762c-.8892-2.1933 1.4121-8.0635 3.6853-8.7287 2.2088-.637 8.4488 3.5721 8.4488 3.5721z" fill="#E6F5FF"/><path d="M42.9849 56.2494l.8891 9.4383s-7.3585 2.3263-9.1206.8628c-1.8226-1.5079-2.583-7.7813-.8932-9.4383 1.6898-1.6571 9.1247-.8628 9.1247-.8628z" fill="#BDE1FF"/><path d="M76.0279 56.6283l-2.0398-9.2729s7.0165-3.2254 8.9472-1.9837c2.0121 1.2781 3.5131 7.4064 2.0406 9.2731-1.4321 1.7941-8.948 1.9835-8.948 1.9835zM63.423 38.7113l7.5074 5.7694s5.874-5.0074 5.5763-7.2853c-.3099-2.3505-5.2062-6.3258-7.5034-5.7695-2.2289.5403-5.5803 7.2854-5.5803 7.2854zM53.4091 73.3561l-7.5034-5.7694s-5.882 5.0074-5.5803 7.2813c.3099 2.3505 5.2102 6.3258 7.5074 5.7694 2.2289-.5362 5.5763-7.2813 5.5763-7.2813zM71.731 68.8124l3.6894-8.7288s7.5798 1.4433 8.4488 3.5721c.8895 2.1973-1.4125 8.0635-3.6852 8.7327-2.2169.6371-8.453-3.576-8.453-3.576z" fill="#E6F5FF"/><path d="M89.8111 7.95712c-2.7729.73385-5.2666 2.27528-7.1667 4.42938-1.8988 2.1541-3.118 4.8243-3.503 7.6728-.385 2.8486.0816 5.7475 1.3406 8.3304 1.259 2.5828 3.2545 4.7334 5.7325 6.18 2.479 1.4467 5.3306 2.1243 8.1929 1.9472 2.8634-.1771 5.6096-1.201 7.8926-2.9422 2.282-1.7412 3.997-4.1214 4.93-6.8398.933-2.7184 1.04-5.6529.308-8.4323-.484-1.8472-1.326-3.5806-2.479-5.1009-1.153-1.5202-2.595-2.7975-4.242-3.75858-1.6462-.96106-3.4666-1.58701-5.3549-1.84199-1.8882-.25498-3.8089-.13399-5.651.35599zM95.4445 29.402c-1.4627.3904-3.0079.337-4.4401-.1533-1.4321-.4904-2.6864-1.3956-3.6044-2.601-.9181-1.2055-1.4588-2.657-1.5531-4.1705-.0944-1.5136.2624-3.0211 1.0232-4.3316.7618-1.3106 1.8942-2.3652 3.2546-3.0302 1.3594-.665 2.886-.9106 4.385-.7055 1.5.2051 2.9046.8515 4.037 1.8575 1.1323 1.0058 1.9413 2.3259 2.3243 3.793.512 1.9599.228 4.043-.789 5.7938-1.0163 1.7506-2.6844 3.0263-4.6375 3.5478z" fill="#BDE1FF"/><path d="M93.9277 10.3601l-6.3253 1.6731s-2.4131-4.76554-1.6091-6.13625c.8051-1.37081 5.0013-2.64485 6.3204-1.67325 1.3201.9717 1.614 6.1364 1.614 6.1364zM99.0656 32.2403l-6.3213 1.6732s.2457 5.3381 1.61 6.1403c1.3634.8024 5.6517-.1814 6.3247-1.6771.671-1.4958-1.6134-6.1364-1.6134-6.1364zM85.0998 13.5572l-2.5419 6.0477s-5.2305-1.0039-5.8381-2.4715c-.6074-1.4676.9777-5.584 2.5508-6.0477 1.5731-.4636 5.8292 2.4715 5.8292 2.4715zM82.3485 22.4593l.6232 6.5234s-5.085 1.6127-6.304.5967c-1.219-1.016-1.7903-5.3784-.6237-6.5032 1.1668-1.1249 6.3045-.6169 6.3045-.6169zM105.192 22.7214l-1.412-6.3984s4.853-2.2255 6.184-1.3707c1.332.8546 2.414 5.1202 1.412 6.3983-1.001 1.2781-6.184 1.3708-6.184 1.3708zM96.4746 10.3359l5.1904 3.9874s4.063-3.4593 3.858-5.03573c-.206-1.57638-3.601-4.35423-5.186-3.98741-1.5859.36692-3.8624 5.03574-3.8624 5.03574zM89.5585 34.2804l-5.19-3.9874s-4.0637 3.4633-3.8545 5.0357c.2092 1.5723 3.6206 4.3744 5.1864 3.9874 1.5649-.3871 3.8581-5.0357 3.8581-5.0357zM102.22 31.1396l2.551-6.0475s5.229.9998 5.833 2.4714c.603 1.4716-.977 5.584-2.546 6.0476-1.57.4637-5.838-2.4715-5.838-2.4715z" fill="#BDE1FF"/><path d="M26.1838 88.7287L36.431 29.3576l12.1865 59.3711H26.1838z" fill="#4990E2"/><path d="M47.3542 88.7287l10.2392-37.5714 12.1905 37.5714H47.3542z" fill="#BDE1FF"/><path d="M3.77429 88.7287l10.23911-23.561 12.1905 23.561H3.77429z" fill="#003AA5"/><path d="M93.2839 88.9788l10.2431-59.3752 12.195 59.3752H93.2839z" fill="#4990E2"/><path d="M114.458 88.9788l10.235-37.5756 12.191 37.5756h-22.426z" fill="#BDE1FF"/><path d="M70.8782 88.9788l10.2392-23.5652 12.1901 23.5652H70.8782z" fill="#003AA5"/><path d="M81.3629 64.1315L57.2798 49.3471 36.2341 28.64 16.3793 59.9465l-1.1225-.7136 20.7359-32.7015 22.1681 21.8077L80.9364 62.305l22.5186-35.7857 18.555 18.7073-.946.9434-17.377-17.5179-22.3241 35.4794z" fill="#74CBC7"/><path d="M37.8795 27.5878c0 .351-.104.6942-.2986.986-.1948.2918-.4715.5191-.7951.6533-.3237.1341-.68.169-1.0234.1002-.3435-.0687-.659-.2382-.9064-.4866-.2474-.2485-.4157-.5649-.4835-.9093-.0678-.3444-.0322-.7013.1024-1.0254.1346-.324.3622-.6008.6538-.7953.2916-.1944.6343-.2978.9845-.297.2323 0 .4623.046.6769.1352.2146.0892.4094.2199.5734.3847.1641.1647.2941.3604.3827.5756.0885.2152.1338.4458.1333.6786zM105.337 27.5878c0 .351-.103.6942-.298.986-.195.2918-.472.5191-.795.6533-.325.1341-.68.169-1.023.1002-.344-.0687-.66-.2382-.907-.4866-.247-.2485-.415-.5649-.483-.9093-.068-.3444-.033-.7013.102-1.0254.135-.324.362-.6008.654-.7953.292-.1944.634-.2978.984-.297.232 0 .462.046.677.1352.214.0892.41.2199.574.3847.164.1647.294.3604.382.5756.089.2152.134.4458.133.6786zM82.9196 63.2202c0 .3509-.1042.6939-.2978.9856-.1946.2918-.4714.5191-.7949.6534-.3235.1343-.6794.1694-1.0228.1009-.3434-.0684-.6588-.2373-.9064-.4854-.2476-.2481-.4162-.5642-.4845-.9083-.0683-.3442-.0332-.7009.1008-1.025.134-.3242.3608-.6012.652-.7961.2911-.195.6333-.299.9834-.299.2327-.0005.4631.045.6782.134.2149.089.4103.2196.575.3844.1641.1648.2949.3606.3833.576.0885.2155.1347.4465.1337.6795zM59.5124 48.8794c-.0008.3499-.105.6917-.2996.9822-.1945.2905-.4706.5168-.7934.6501-.3228.1334-.6779.1678-1.0201.0991-.3424-.0688-.6567-.2377-.9034-.4854-.2466-.2477-.4144-.563-.4822-.9063-.0678-.3432-.0326-.6989.1011-1.022.1339-.3232.3603-.5993.6507-.7937.2903-.1943.6316-.298.9808-.298.2322 0 .4622.0459.6768.1351.2145.0892.4094.2199.5735.3847.164.1648.2941.3604.3825.5757.0886.2151.1339.4457.1333.6785zM15.8198 62.5873c0 .3509-.1038.6939-.2983.9856-.1945.2917-.4709.5191-.7944.6534-.3235.1342-.6794.1693-1.0228.1009-.3434-.0684-.6589-.2373-.9064-.4854-.2476-.2481-.4162-.5643-.4845-.9083-.0683-.3442-.0332-.7009.1008-1.025.134-.3242.3608-.6012.652-.7962.291-.1949.6333-.2989.9834-.2989.2325 0 .4627.0458.6775.135.2148.0891.4099.2199.5743.3846.1644.1647.2947.3602.3838.5755.0889.2152.1346.4459.1346.6788zM126.452 48.8794c0 .3508-.104.6938-.299.9855-.195.2918-.471.5191-.794.6534-.324.1342-.68.1694-1.024.101-.343-.0685-.658-.2375-.906-.4856s-.416-.5641-.484-.9083c-.068-.3441-.033-.7007.101-1.0249.133-.3241.361-.6012.651-.7961.291-.1949.635-.299.984-.299.232 0 .462.0459.678.1351.214.0891.41.2197.574.3845.164.1647.295.3602.384.5755.089.2153.135.4459.135.6789z" fill="#74CBC7"/><path d="M87.048 60.3577s-3.0825-1.399-3.7264-.9675c-.5465.3627-1.8422 2.5279 3.4768 2.3101l.2496-1.3426z" fill="#EEF9FF"/><path d="M112.391 52.5079l-6.124 14.0426-19.8992-4.6889.3293-1.6852 15.8519 1.2094 6.111-12.1718s2.684-5.3783 4.475-2.8787c.905 1.27.462 3.2859-.744 6.1726z" fill="#003AA5"/><path d="M106.376 69.8163L91.0791 94.8936l-2.1202-.3711 6.5897-23.6258 10.8274-1.0804z" fill="#74CBC7"/><path d="M116.055 66.1111s5.717 10.4422-5.801 10.3373c-11.5186-.1047-14.0458.3508-14.0458.3508l8.7108 13.0745-.753 1.9798s-17.2113-18.3603-17.46-20.5052c-.2497-2.1449-3.4197-4.2575 29.349-5.2372z" fill="#74CBC7"/><path d="M105.012 88.9749l-2.069 2.0841 1.425 1.3911.217.9845-.95 5.1686.685-.8466 2.26-3.7539.435-.0926.986-1.2582-2.989-3.677zM91.546 94.6918l-2.9056-.4066-.2575 1.9749-.6596.762-4.6906 2.3392 1.0822.0403 4.3525-.44.3421.2983 1.5933.0364 1.1432-4.6045z" fill="#003AA5"/><path d="M106.138 46.4603c.152.6047-2.301 1.0725-2.443.4637-.241-1.0234-.358-2.0729-.346-3.1246l1.686-1.016s.786 2.3948 1.103 3.6769z" fill="#EEF9FF"/><path d="M103.853 44.7146c-.162.0483-1.642.5967-2.011-.1089-.371-.7055-.806-3.4835-.596-4.2213.209-.7377 1.336-1.3587 1.935-1.2095s2.386 1.4354 2.076 4.314c-.308.5623-.806.9966-1.404 1.2257z" fill="#EEF9FF"/><path d="M100.904 40.449s.313.9193.969.7136c.656-.2056 1.762-.6208 1.976-.129.213.4919.064 2.3223.507 2.6852.442.3628 1.444.7055 1.517.0363.071-.6693-.27-4.6486-2.487-5.1728 0 0-2.128-.0444-2.482 1.8667z" fill="#171B23"/><path d="M98.7993 48.0771l4.4297 19.0822 14.242.8951-5.415-22.3803-13.2567 2.403z" fill="#003AA5"/><path d="M79.5483 62.1035s-2.6312-.8991-3.1301-.4919c-.4024.3427-1.3076 2.2175 3.0336 1.6127l.0965-1.1208z" fill="#EEF9FF"/><path d="M99.6888 53.665l-3.9023 11.9824-16.6686-2.2538.1287-1.407 13.0838-.2783L96.3537 51.25s1.7703-4.6164 3.4354-2.7133c.8609.9676.6559 2.6569-.1003 5.1283zM55.1071 48.073l-6.8395 3.564 8.5736 15.5465s-.8047 4.7575 2.0881 13.6031l2.2771 7.8456 1.4162-.1614-2.6232-22.1218s-1.5328-10.6601-4.8923-18.276z" fill="#003AA5"/><path d="M60.7074 88.2571l2.0277-.887.6236 1.6008.6478.5159 3.9427 1.077-.7845.2333-3.2709.444-.185.3141-1.1507.3269-1.8507-3.625z" fill="#BDE1FF"/><path d="M52.5806 50.9718l-7.7569.3306 1.2311 16.3366s-3.4882 3.3222-6.4573 12.1396l-2.8726 7.6604 1.2351.7177 11.1203-19.2879s3.7376-11.1841 3.5003-17.897z" fill="#003AA5"/><path d="M36.9501 86.0844l2.0841 1.4353-.9817 1.4108-.0242.8634 1.6375 4.2284-.7162-.6084-2.5185-2.8137-.3902-.0088-1.034-.9028 1.9432-3.6042z" fill="#BDE1FF"/><path d="M51.1281 25.0155s-2.1847.4314-2.5387 1.8788c-.3541 1.4474-.9294 2.2537-2.6031 3.3745-1.6737 1.1209-4.3089 3.1125-4.0232 4.8381.4466 2.7335-1.4282 4.1568-.696 5.6445.7322 1.4876 2.6352.7781 3.2185 0 .5834-.7782 4.8803-4.5317 5.516-5.9267.6357-1.3949 2.4622-.4516 3.2186-1.4111.7564-.9596.3058-2.4715.6597-3.0077 1.2835-1.9715.4024-3.6688-.7201-4.8381-1.1225-1.1692-2.0317-.5523-2.0317-.5523z" fill="#2E3B57"/><path d="M75.5614 31.8694s1.6697-2.2617 2.3133-2.2053c.5392.0444 2.3537 1.0885-1.6093 3.0803l-.704-.875z" fill="#EEF9FF"/><path d="M54.5519 37.3929l10.3156 7.3862 11.8043-12.0953-.9536-1.2902-10.4846 8.112-9.6195-5.8945s-3.0779-2.2456-4.4055-.0685c.8361 1.5018 1.9746 2.813 3.3433 3.8503z" fill="#74CBC7"/><path d="M46.4894 32.8572s-1.5531 1.391-2.4141 4.9429c-.861 3.552.523 8.3296.523 8.3296l-.0924 8.1804 12.1904-1.2095 1.207-8.4344-1.5852-2.4916 1.207-2.5078-3.3755-7.8418-7.6602 1.0322z" fill="#4990E2"/><path d="M50.7217 29.4948l-1.384 2.9229s3.287 3.4311 3.1985 1.8224c-.01-1.4588.0679-2.9169.2334-4.3664l-2.0479-.3789z" fill="#EEF9FF"/><path d="M50.7618 25.3743c-.3782.6008-1.1265 1.77-.9173 2.6932.2092.9233.4788 2.5481 1.384 3.0964.9053.5483 1.3679-.508 1.6415-.8346.2736-.3266 1.4524-3.8302.0483-4.9832-1.0661-.8669-1.8669-.4314-2.1565.0282z" fill="#EEF9FF"/><path d="M52.1901 26.0436s-1.2472 1.7417-2.615 1.8989c0 0-1.038-2.9553 2.2127-3.3503 0 0 3.4479.8909 1.9553 3.2979 0 0-1.6013-.883-1.553-1.8465z" fill="#2E3B57"/><path d="M56.5796 55.4995s2.7358.625 2.941 1.2418c.177.512-.0482 2.5924-3.4519-.2298l.5109-1.012z" fill="#EEF9FF"/><path d="M43.7616 37.5904l-2.9773 12.3453 15.4856 6.9104.6316-1.2781-11.076-7.1765 2.0558-11.1155s.9938-3.6809-1.5126-4.1487c-1.2077 1.2613-2.1009 2.7905-2.6071 4.4631z" fill="#74CBC7"/></g><defs><clipPath id="clip0"><path fill="#fff" d="M0 0h140v103H0z"/></clipPath></defs></svg>