<svg width="140" height="100" fill="none" xmlns="http://www.w3.org/2000/svg"><g clip-path="url(#clip0)"><path d="M35.6577 45.0768c-2.9004.7683-5.5088 2.3823-7.4951 4.6381s-3.2613 5.052-3.6638 8.035c-.4026 2.983.0854 6.0188 1.4023 8.7235 1.3169 2.7046 3.4035 4.9567 5.9959 6.4713 2.5925 1.5146 5.5743 2.2238 8.5684 2.0378 2.994-.186 5.8659-1.2588 8.2524-3.0826 2.3865-1.8239 4.1804-4.317 5.1548-7.164.9744-2.847 1.0856-5.92.3195-8.8304-1.0271-3.9021-3.5568-7.235-7.0325-9.2657-3.4758-2.0307-7.6131-2.5929-11.5019-1.563zm5.9066 22.4502c-1.5251.4042-3.1354.3454-4.6272-.1688s-2.7982-1.4608-3.7538-2.7201c-.9557-1.2593-1.5177-2.7747-1.615-4.3545-.0974-1.5799.2744-3.1532 1.0682-4.521.7937-1.3678 1.9739-2.4687 3.3913-3.1634 1.4173-.6948 3.0081-.9521 4.5712-.7395 1.5631.2125 3.0282.8855 4.2102 1.9337 1.1819 1.0482 2.0275 2.4246 2.4299 3.9551.5384 2.0518.2432 4.2341-.8208 6.0676-1.0641 1.8336-2.8099 3.1683-4.854 3.7109z" fill="#BDE1FF"/><path d="M39.9664 47.5929l-6.6089 1.7619s-2.5389-4.9968-1.6926-6.431c.8463-1.4342 5.2323-2.7626 6.6089-1.7619 1.3765 1.0008 1.6926 6.431 1.6926 6.431zM45.3286 70.4976l-6.6089 1.7619s.2599 5.5888 1.6891 6.4239c1.4293.8352 5.9101-.1832 6.6089-1.7619.6778-1.5152-1.6891-6.4239-1.6891-6.4239zM30.7414 50.944l-2.6618 6.3147s-5.4747-1.0572-6.0997-2.59c-.6251-1.5329 1.0218-5.839 2.6618-6.3112 1.6399-.4722 6.0997 2.5865 6.0997 2.5865zM27.8619 60.2574l.6461 6.8292s-5.3166 1.6843-6.5913.6237c-1.2747-1.0607-1.8647-5.6381-.6426-6.8256 1.222-1.1875 6.5878-.6273 6.5878-.6273zM51.741 60.5428l-1.4749-6.6952s5.0708-2.3292 6.4649-1.4342c1.3941.8951 2.5389 5.3562 1.4749 6.6953-1.064 1.339-6.4649 1.4341-6.4649 1.4341zM42.6318 47.5717l5.422 4.1616s4.2455-3.6224 4.0313-5.2681c-.2247-1.702-3.7609-4.5809-5.4219-4.1757-1.661.4053-4.0314 5.2822-4.0314 5.2822zM35.3836 72.6331l-5.4079-4.1722s-4.2491 3.6225-4.0313 5.2857c.2177 1.6632 3.7644 4.5809 5.4219 4.1722 1.6575-.4088 4.0173-5.2857 4.0173-5.2857zM48.6367 69.3524l2.6618-6.3182s5.4782 1.0571 6.0962 2.5865c.6181 1.5293-1.0183 5.846-2.6618 6.3181-1.5908.4581-6.0962-2.5864-6.0962-2.5864zM94.7302 27.0314c-2.8997.7681-5.5073 2.3817-7.4931 4.6368-1.9858 2.2552-3.2606 5.0506-3.6631 8.0328-.4026 2.9822.0852 6.0172 1.4016 8.7212 1.3163 2.704 3.4022 4.9555 5.9938 6.47 2.5916 1.5144 5.5726 2.2236 8.5656 2.038 2.994-.1856 5.865-1.2577 8.251-3.0808 2.386-1.8231 4.18-4.3153 5.154-7.1613.975-2.8461 1.086-5.9183.321-8.828-1.026-3.9018-3.555-7.2347-7.03-9.2655-3.476-2.0308-7.612-2.5931-11.5008-1.5632zm5.9068 22.4502c-1.525.4028-3.135.3428-4.627-.1726-1.4909-.5153-2.7964-1.4627-3.751-2.7225-.9547-1.2598-1.5156-2.7753-1.612-4.355-.0964-1.5797.2762-3.1526 1.0706-4.5198.7945-1.3672 1.975-2.4673 3.3924-3.1613 1.418-.694 3.008-.9506 4.571-.7375 1.563.2132 3.028.8865 4.209 1.9349 1.181 1.0485 2.027 2.4249 2.429 3.9552.538 2.0509.244 4.2324-.819 6.0658-1.062 1.8333-2.806 3.1686-4.849 3.7128h-.014z" fill="#BDE1FF"/><path d="M99.049 29.5333l-6.6084 1.7619s-2.5213-4.9897-1.6891-6.4239c.8323-1.4342 5.2325-2.7626 6.6055-1.7619 1.373 1.0008 1.692 6.4239 1.692 6.4239zM104.415 52.4381L97.806 54.2s.26 5.5852 1.689 6.4239c1.43.8387 5.907-.1867 6.609-1.7619.703-1.5751-1.689-6.4239-1.689-6.4239zM89.8139 32.8951l-2.6618 6.3181s-5.4781-1.0571-6.0997-2.59c-.6215-1.5328 1.0184-5.8424 2.6618-6.3146 1.6435-.4722 6.0997 2.5865 6.0997 2.5865zM86.9484 42.219l.6426 6.8292s-5.3166 1.6844-6.5913.6237c-1.2747-1.0607-1.8647-5.6381-.6426-6.8256 1.222-1.1876 6.5913-.6273 6.5913-.6273zM110.824 42.4869l-1.475-6.6953s5.071-2.3292 6.465-1.4377c1.394.8915 2.539 5.3597 1.475 6.6953-1.064 1.3355-6.465 1.4377-6.465 1.4377zM101.715 29.5334l5.425 4.1757s4.246-3.6225 4.032-5.2858c-.215-1.6632-3.761-4.5809-5.422-4.1757-1.661.4053-4.035 5.2858-4.035 5.2858zM94.4844 54.5876l-5.4255-4.1722s-4.2456 3.6225-4.0279 5.2857c.2178 1.6633 3.761 4.581 5.422 4.1757 1.6083-.3911 4.0314-5.2892 4.0314-5.2892zM107.723 51.2999l2.665-6.3146s5.475 1.0571 6.097 2.5864c.621 1.5294-1.019 5.846-2.662 6.3182-1.644.4722-6.1-2.59-6.1-2.59z" fill="#BDE1FF"/><path d="M116.976 13.6163c-1.404.3711-2.666 1.1517-3.628 2.2431-.962 1.0913-1.579 2.4444-1.775 3.888-.195 1.4437.041 2.913.678 4.2221.637 1.3092 1.646 2.3993 2.901 3.1326 1.255.7332 2.698 1.0766 4.147.9867 1.449-.0898 2.839-.609 3.994-1.4917 1.155-.8827 2.023-2.0893 2.494-3.4672.472-1.3779.526-2.8652.155-4.2737-.246-.935-.672-1.8124-1.256-2.5819-.583-.7695-1.312-1.416-2.145-1.9027-.832-.4866-1.752-.8038-2.707-.9334-.955-.1296-1.926-.0691-2.858.1781zm2.855 10.8604c-.739.1967-1.519.169-2.242-.0797-.724-.2486-1.357-.7071-1.82-1.3172-.464-.6101-.736-1.3445-.784-2.1102-.047-.7657.133-1.5282.518-2.191.385-.6629.957-1.1962 1.645-1.5325.687-.3362 1.458-.4603 2.215-.3566.758.1038 1.467.4308 2.04.9396.572.5088.981 1.1765 1.174 1.9186.26.9925.116 2.0475-.399 2.9339-.515.8865-1.358 1.532-2.347 1.7951z" fill="#BDD9FA"/><path d="M119.059 14.832l-3.199.8493s-1.219-2.4138-.815-3.108c.404-.6942 2.528-1.3391 3.196-.8458.667.4934.818 3.1045.818 3.1045zM121.654 25.9179l-3.199.8457s.126 2.7028.818 3.108c.692.4053 2.862-.0881 3.199-.8457.337-.7576-.818-3.108-.818-3.108zM114.595 16.453l-1.285 3.0586s-2.651-.5074-2.953-1.2544c-.302-.7471.495-2.8191 1.289-3.0552.793-.2361 2.949 1.251 2.949 1.251zM113.205 20.9599l.309 3.3054s-2.571.8175-3.189.303c-.618-.5145-.902-2.7239-.312-3.3053.59-.5815 3.192-.3031 3.192-.3031zM124.758 21.0938l-.702-3.2384s2.458-1.1276 3.129-.7047c.67.4228 1.229 2.59.702 3.2419-.527.6519-3.129.7012-3.129.7012zM120.365 14.8214l2.609 2.0262s2.054-1.7619 1.949-2.5477c-.105-.7858-1.819-2.2165-2.623-2.0227-.804.1939-1.935 2.5442-1.935 2.5442zM116.853 26.9504l-2.623-2.0227s-2.058 1.7619-1.952 2.5513c.105.7893 1.822 2.2164 2.623 2.0226.801-.1938 1.952-2.5512 1.952-2.5512zM123.255 25.3611l1.289-3.0551s2.648.5039 2.95 1.251c.302.747-.492 2.819-1.289 3.0551-.797.2361-2.95-1.251-2.95-1.251z" fill="#BDD9FA"/><path d="M106.902 61.7092c0 6.9091-2.041 13.6633-5.866 19.4083-3.824 5.745-9.2611 10.2228-15.6221 12.8671-6.3609 2.6444-13.3605 3.3364-20.1135 1.9884-6.7529-1.3475-12.9559-4.6744-17.8245-9.5599-4.8686-4.8855-8.1841-11.11-9.5271-17.8864-1.3431-6.7764-.6535-13.8002 1.9817-20.1833 2.6352-6.383 7.0975-11.8386 12.8227-15.6766 5.7251-3.8381 12.4559-5.8863 19.3411-5.8856 9.2315 0 18.0848 3.6799 24.6127 10.2302 6.527 6.5503 10.195 15.4344 10.195 24.6978z" fill="#4990E2"/><path d="M100.872 61.7092c0 5.7107-1.687 11.2932-4.849 16.0418-3.1611 4.7485-7.6545 8.4498-12.912 10.636-5.2574 2.1862-11.0427 2.7591-16.6246 1.6463-5.5819-1.1129-10.7096-3.8614-14.735-7.8983-4.0253-4.0368-6.7675-9.1807-7.8799-14.7812-1.1124-5.6006-.545-11.4063 1.6305-16.6833 2.1754-5.277 5.8612-9.7883 10.5914-12.9636 4.7301-3.1752 10.2923-4.8718 15.9833-4.8753 7.6339 0 14.9555 3.0419 20.3551 8.457 5.4002 5.4151 8.4352 12.7602 8.4402 20.4206z" fill="#B9DDFF"/><path d="M94.4493 61.7092c0 4.4367-1.3111 8.7739-3.7675 12.4629-2.4564 3.689-5.9478 6.5642-10.0326 8.2621-4.0849 1.6979-8.5797 2.1421-12.9162 1.2765-4.3364-.8655-8.3197-3.002-11.4461-6.1393-3.1264-3.1372-5.2555-7.1343-6.1181-11.4858-.8626-4.3515-.4199-8.8619 1.2721-12.961 1.692-4.099 4.5573-7.6025 8.2336-10.0674 3.6763-2.4649 7.9984-3.7806 12.4198-3.7806 2.9357 0 5.8427.5803 8.5549 1.7076 2.7122 1.1274 5.1766 2.7797 7.2525 4.8628 2.0758 2.083 3.7225 4.556 4.8459 7.2776 1.1235 2.7217 1.7017 5.6387 1.7017 8.5846z" fill="#4990E2"/><path d="M84.9504 61.7092c0 2.5515-.754 5.0457-2.1666 7.1672-1.4126 2.1216-3.4205 3.7751-5.7696 4.7515-2.3492.9764-4.9341 1.2319-7.4279.7341-2.4939-.4978-4.7846-1.7264-6.5826-3.5306-1.7979-1.8042-3.0223-4.1029-3.5184-6.6054-.496-2.5025-.2415-5.0964.7316-7.4536.973-2.3573 2.6208-4.3721 4.735-5.7897 2.1142-1.4175 4.5998-2.1741 7.1425-2.1741 1.6884-.0005 3.3603.3329 4.9203.981 1.56.6482 2.9774 1.5984 4.1713 2.7964 1.1939 1.1981 2.1408 2.6204 2.7868 4.1858.6459 1.5654.9781 3.2432.9776 4.9374z" fill="#F3FAFF"/><path d="M77.1721 61.7092c0 1.0092-.2982 1.9957-.8569 2.8348-.5588.8391-1.3529 1.4931-2.282 1.8793-.9292.3862-1.9516.4872-2.9379.2903-.9864-.1968-1.8924-.6828-2.6035-1.3964-.7112-.7136-1.1955-1.6228-1.3917-2.6125-.1962-.9898-.0955-2.0158.2894-2.9481.3849-.9324 1.0366-1.7293 1.8728-2.2899.8362-.5607 1.8193-.8599 2.825-.8599 1.3486 0 2.6419.5375 3.5955 1.4944.9536.9569 1.4893 2.2548 1.4893 3.608z" fill="#B9DDFF"/><path d="M46.2845 33.5002l-.931.8477 25.9831 28.7346.931-.8477-25.9831-28.7346z" fill="#003AA5"/><path d="M71.1742 62.6818c-.0099.1307.0198.2614.085.375.0653.1136.1632.2048.2809.2617.1177.0569.2498.0768.379.0572.1292-.0196.2495-.0778.3452-.167.0957-.0893.1623-.2054.1912-.3333.029-.1278.0188-.2615-.0291-.3834-.048-.122-.1315-.2266-.2396-.3003-.1081-.0736-.2358-.1128-.3664-.1125-.1653-.0057-.326.0545-.4471.1674-.1211.113-.1927.2694-.1991.4352zM44.2962 25.6853l-.6146 4.0877-4.4387.014 11.0125 13.6724 4.9619.9655-.1756-5.4055-10.7455-13.3341z" fill="#003AA5"/><path d="M83.3525 17.0907s2.0473-.9338 2.4582-.6448c.3512.2396 1.2256 1.6738-2.3037 1.5399l-.1545-.8951z" fill="#EEF9FF"/><path d="M66.5108 11.9143l4.0876 9.317 13.2072-3.1503-.2177-1.1241-10.5349.8316-4.07-8.06949s-2.107-3.5238-3.2131-1.7866c-.5373.8598-.0667 2.065.7409 3.98189z" fill="#74CBC7"/><path d="M65.6434 2.53391s-1.7278.14095-2.107 1.23333c-.3793 1.09238-.913 1.65967-2.3036 2.38207-1.3906.7224-3.5889 2.0333-3.5117 3.3864.1089 2.14949-1.4608 3.08329-1.0218 4.29549.4389 1.2122 1.963.8281 2.4827.2784.5197-.5497 4.1507-3.0798 4.7617-4.1052.6111-1.02549 1.9385-.13749 2.6057-.80699.6672-.6695.4494-1.8852.7655-2.2728 1.1623-1.4096.6321-2.79794-.137-3.78813-.769-.99019-1.5345-.60257-1.5345-.60257z" fill="#11141B"/><path d="M56.9382 22.2214l11.2372.9021 13.1545 1.8923s2.8901.0775 2.6934 7.5057l.1897 13.3905-1.5135-.0212s-2.7181-9.3803-3.3782-16.0544c0 0-11.6446.7047-15.5706-1.0325s-7.6975-6.0856-6.8125-6.5825z" fill="#003AA5"/><path d="M56.9169 22.2919l20.5149 6.2125s2.7707.7047.4565 8.1047l-3.5256 13.7147-1.5171-.4581s0-9.916.9938-16.9143c0 0-10.9738-.4933-15.6759-2.368-4.1683-1.6949-2.6864-6.2406-1.2466-8.2915z" fill="#003AA5"/><path d="M60.8641 7.80551s-1.3555.9691-2.3528 3.72119c-.9973 2.7521-.3195 6.6952-.3195 6.6952l-1.9455 5.2575 11.9396-.3524.7304-4.9016-1.0535-2.1143 1.1659-1.8923-1.9911-6.56829-6.1735.155z" fill="#4990E2"/><path d="M72.6385 49.3477l2.2509.437-.309 1.5293.295.733 2.883 2.9318-.8112-.2467-3.1148-1.4342-.3265.1304-1.1905-.3771.3231-3.7035zM82.4817 45.3165l2.1561-.4335.281 1.4695.5267.5462 3.6205 1.5399-.8112.081-3.2763-.1374-.2424.2361-1.1939.1022-1.0605-3.404z" fill="#74CBC7"/><path d="M64.4985 5.5397l-1.373 2.2059s2.3106 3.027 2.3809 1.7373c.1221-1.1627.3132-2.3171.5724-3.4569l-1.5803-.4863z" fill="#EEF9FF"/><path d="M65.3274 2.77703c-.3512.43342-1.0184 1.27209-.9376 2.00152.0807.72944.151 2.01214.8041 2.51244.6532.5004 1.0957-.2748 1.338-.5039.2423-.229 1.4503-2.81902.46-3.84444-.748-.76467-1.4082-.49334-1.6645-.16562z" fill="#EEF9FF"/><path d="M66.3703 3.41839s-1.1096 1.23686-2.1772 1.24038c0 0 .5303-2.32571 1.9981-2.19181 0 0 1.6926.39819 1.2221 2.50895 0 0-1.1624-.814-1.043-1.55752z" fill="#191D26"/><path d="M68.393 26.2033s2.0578.9021 2.1316 1.4096c.0667.4299-.4214 2.0332-2.6794-.7048l.5478-.7048z" fill="#EEF9FF"/><path d="M58.1321 12.1891l-2.3809 9.909 12.6103 5.0531.3828-.7893-8.9723-5.5747 1.4855-8.9363s.7409-2.97061-1.2748-3.30891c-.8605 1.0749-1.4906 2.31651-1.8506 3.64711z" fill="#74CBC7"/><path d="M75.8936 6.2951l-.502.4569 14.0165 15.5063.502-.4569L75.8936 6.2951z" fill="#003AA5"/><path d="M74.8158 2.0723l-.33 2.20238-2.395.01057 5.9417 7.37535 2.6759.5215-.0913-2.91769-5.8013-7.19211z" fill="#003AA5"/></g><defs><clipPath id="clip0"><path fill="#fff" d="M0 0h140v100H0z"/></clipPath></defs></svg>